# This file is brought to you by Roblox Corporation
# Generated by Roblox Studio

mtllib karton.mtl

g Bodygeom1

v -1.72908 2.75541 1.64931 
v -1.73159 2.68178 1.64597 
v -1.71783 2.72336 1.65973 
v -1.73865 2.75099 1.63321 
v -1.72819 2.77195 1.63926 
v -1.70216 2.70682 1.68034 
v -1.70158 2.76751 1.65475 
v -1.69997 2.78491 1.63958 
v -1.68544 2.7791 1.66579 
v -1.71221 2.63392 1.67493 
v -1.68296 2.71851 1.69285 
v -1.66785 2.7451 1.69219 
v -1.65602 2.79264 1.66474 
v -1.63555 2.76701 1.69157 
v -1.60105 2.79325 1.67526 
v -1.65695 2.69489 1.70316 
v -1.66367 1.82469 1.69762 
v -1.63304 2.73721 1.70363 
v -1.5681 2.77279 1.69272 
v 0.0899771 2.76563 1.6958 
v -1.62002 2.71074 1.70743 
v -0.360424 2.74763 1.70368 
v 1.61659 2.77962 1.68696 
v 1.60158 2.80742 1.65948 
v 1.642 2.79949 1.66614 
v -0.486277 2.64511 1.71041 
v -0.379855 2.68574 1.71603 
v 0.835387 2.72711 1.70678 
v 1.6159 2.7541 1.69995 
v 1.67237 2.76497 1.68662 
v 1.67694 2.78323 1.6678 
v 1.72135 2.77241 1.64717 
v 1.6616 2.7465 1.69474 
v 1.69617 2.74587 1.67609 
v 1.72421 2.75764 1.65156 
v 1.72208 2.71355 1.65098 
v 1.68305 2.72428 1.68971 
v 1.70522 2.19933 1.66184 
v 1.61565 2.71801 1.70691 
v -1.71912 2.53264 -1.65811 
v -1.7305 2.62306 -1.65041 
v -1.69566 2.63031 -1.68013 
v -1.6824 2.34167 -1.68648 
v -1.71654 2.33083 -1.65701 
v -1.69602 2.22803 -1.67577 
v -1.6558 2.28356 -1.69673 
v -1.70429 1.91912 -1.67052 
v -1.71326 2.63911 -1.66662 
v -1.73699 2.71935 -1.65609 
v -1.72371 2.7451 -1.66716 
v -1.68119 2.73509 -1.69239 
v -1.69961 2.74176 -1.67353 
v -1.66563 2.73274 -1.69944 
v -1.67577 2.76797 -1.68659 
v -1.69633 2.77263 -1.6677 
v -1.72966 2.76328 -1.65974 
v -1.73042 2.77832 -1.64192 
v -1.68465 2.7864 -1.66554 
v -1.65098 2.78762 -1.68085 
v -1.63452 2.76781 -1.69448 
v -1.62849 2.7456 -1.70144 
v -0.980525 2.76424 -1.6972 
v 1.60426 2.80604 -1.66771 
v -1.62415 2.71375 -1.70578 
v 1.62787 2.78289 -1.68979 
v 1.65595 2.79492 -1.67661 
v 1.49802 2.74414 -1.70423 
v 1.6767 2.77182 -1.6894 
v 1.69223 2.78658 -1.66638 
v 1.72765 2.77477 -1.64862 
v 1.71169 2.76019 -1.67078 
v 1.70043 2.74078 -1.68936 
v 1.6828 2.74028 -1.69871 
v 1.63897 2.75419 -1.70206 
v 1.61645 2.71522 -1.70722 
v 1.67416 1.86656 1.68628 
v 1.68604 1.30765 1.67591 
v 1.62392 1.45989 1.70469 
v 1.6621 1.30722 1.69388 
v 1.67636 0.606473 1.67505 
v 0.860843 2.07242 1.70883 
v 1.64777 0.486359 1.69224 
v 1.66344 0.314048 1.67748 
v 1.6163 1.10522 1.70522 
v -0.290061 1.52661 1.7108 
v 0.283327 2.163 1.71489 
v -0.357419 2.41688 1.72107 
v -0.434873 2.60889 1.71793 
v -0.458312 2.31846 1.71679 
v -0.451393 1.81423 1.71466 
v -0.678392 1.74494 1.71011 
v -1.6193 1.147 1.70666 
v -1.64571 1.19127 1.70292 
v -1.68253 1.36562 1.68629 
v -1.66764 1.10498 1.69651 
v -1.70942 1.44413 1.66128 
v -1.71832 1.58321 1.65046 
v -1.68401 1.07176 1.68784 
v -1.68636 0.726229 1.68172 
v -1.7039 0.560266 1.64888 
v -1.69169 0.284169 1.66069 
v -1.64118 0.795973 1.70353 
v -1.65324 0.292408 1.69442 
v -1.67925 0.277835 1.67743 
v -1.67949 0.0582557 1.66451 
v -1.65949 0.0796969 1.68413 
v -1.61407 0.0686184 1.70176 
v -1.54682 0.289844 1.70675 
v -1.68542 0.0366826 1.63997 
v -1.66409 0.025835 1.66013 
v -1.65783 0.0426061 1.67789 
v -1.61749 0.0157768 1.6787 
v -1.61455 0.0424114 1.69622 
v -0.43821 0.0662917 1.70143 
v -0.77711 0.034405 1.68981 
v -0.357894 0.0153929 1.67005 
v 1.59877 0.0335883 1.6913 
v 1.09546 0.0178195 1.67396 
v 1.59837 0.0168442 1.67975 
v 1.64406 0.024995 1.66455 
v 1.54165 0.0688988 1.70288 
v 1.60868 0.059993 1.69787 
v 1.65258 0.0528269 1.67152 
v 1.56404 0.103584 1.70401 
v 1.62284 0.0992614 1.6951 
v 1.6679 0.150255 1.66359 
v 1.62525 0.533252 1.70135 
v 1.60283 0.279408 1.70347 
v 1.65443 0.1707 1.67863 
v -1.75217 2.64202 -0.305127 
v -1.75016 2.00128 0.200304 
v -1.75182 2.50308 0.232219 
v -1.73586 1.81005 0.574521 
v -1.74943 1.96816 -0.194653 
v -1.73437 1.55531 0.264326 
v -1.73593 1.79977 -0.595036 
v -1.73629 1.65934 -0.401112 
v -1.71635 0.532002 0.442826 
v -1.75008 2.72954 0.0957056 
v -1.7461 2.74352 0.545809 
v -1.74545 2.73925 -0.833607 
v -1.73829 2.76814 -1.6277 
v -1.74155 2.37168 -1.55535 
v -1.74458 2.72221 -1.63866 
v -1.7371 2.22234 -1.59085 
v -1.74104 2.58796 -1.61931 
v -1.7305 2.62306 -1.65041 
v -1.73699 2.71935 -1.65609 
v -1.72925 2.38215 -1.63858 
v -1.71912 2.53264 -1.65811 
v -1.71654 2.33083 -1.65701 
v -1.74232 2.75335 -1.64199 
v -1.72371 2.7451 -1.66716 
v -1.72966 2.76328 -1.65974 
v -1.73042 2.77832 -1.64192 
v -1.70303 2.80357 -1.41074 
v -1.73149 2.77968 0.0247354 
v -1.73916 2.76613 1.10184 
v -1.72952 2.77794 1.56093 
v -1.74809 2.71605 0.914136 
v -1.74465 2.75042 1.32186 
v -1.74037 2.75795 1.60758 
v -1.70798 2.7975 1.59355 
v -1.72819 2.77195 1.63926 
v -1.73865 2.75099 1.63321 
v -1.74622 2.71475 1.59968 
v -1.73262 1.96459 1.60514 
v -1.73159 2.68178 1.64597 
v -1.72718 1.91003 1.63196 
v -1.71221 2.63392 1.67493 
v -1.71832 1.58321 1.65046 
v -1.71764 1.01605 1.62236 
v -1.70942 1.44413 1.66128 
v -1.7039 0.560266 1.64888 
v -1.7162 0.825881 1.60964 
v -1.71295 0.642001 1.60126 
v -1.69823 0.233263 1.6419 
v -1.69169 0.284169 1.66069 
v -1.67949 0.0582557 1.66451 
v -1.69962 0.084129 1.5892 
v -1.69563 0.0600581 1.62554 
v -1.68542 0.0366826 1.63997 
v -1.6896 0.0389757 1.60946 
v -1.6717 0.0149984 1.62294 
v -1.6828 0.0253265 1.12991 
v -1.69691 0.0528904 0.839697 
v -1.68304 0.0274619 0.271099 
v -1.7024 0.0874523 -0.809101 
v -1.69173 0.0418936 -0.634264 
v -1.66758 0.0149935 -1.18026 
v -1.68128 0.0310812 -1.58321 
v -1.6969 0.069759 -1.38992 
v -1.71228 0.505264 -1.56104 
v -1.69657 0.0797395 -1.58369 
v -1.6794 0.0422065 -1.62887 
v -1.66705 0.0195417 -1.62732 
v -1.69879 0.170053 -1.6075 
v -1.65692 0.0374882 -1.64929 
v -1.70371 0.402894 -1.62234 
v -1.66533 0.0997771 -1.64356 
v -1.64709 0.0644846 -1.67473 
v -1.68206 0.121341 -1.63216 
v -1.67411 0.193443 -1.65965 
v -1.69478 0.304649 -1.63793 
v -1.68553 0.347202 -1.65789 
v -1.66817 0.344136 -1.67536 
v -1.69167 0.520621 -1.65465 
v -1.67983 0.584052 -1.66965 
v -1.70018 0.504612 -1.63917 
v -1.71608 0.898652 -1.60393 
v -1.69819 0.834104 -1.65013 
v -1.66855 0.683575 -1.6787 
v -1.69425 1.02539 -1.66157 
v -1.71592 1.12247 -1.62668 
v -1.70853 1.25975 -1.64947 
v -1.70006 1.34278 -1.66204 
v -1.72614 1.43181 -1.5873 
v -1.71892 1.49653 -1.63278 
v -1.71823 1.93271 -1.65355 
v -1.70429 1.91912 -1.67052 
v -1.69602 2.22803 -1.67577 
v -1.72837 1.9628 -1.6307 
v -1.7263 2.11626 -1.63412 
v 1.74468 2.73572 0.0918623 
v 1.73701 2.75304 -0.968536 
v 1.73105 2.77101 -0.25871 
v 1.74783 2.58353 -0.0703894 
v 1.74283 2.71259 -0.741848 
v 1.73975 1.96661 -0.269563 
v 1.72695 1.62498 -0.555252 
v 1.73194 1.66685 0.151162 
v 1.70345 0.347382 -0.0214276 
v 1.72765 2.77477 -1.64862 
v 1.71334 0.89199 -1.48964 
v 1.6956 0.182224 -1.58236 
v 1.73693 2.75818 -1.5495 
v 1.74263 2.7275 -1.5796 
v 1.70931 1.06875 -1.61279 
v 1.72655 1.79809 -1.46469 
v 1.68747 0.214995 -1.62217 
v 1.74151 2.63982 -1.60221 
v 1.72487 1.7762 -1.5883 
v 1.7018 1.1081 -1.64221 
v 1.68476 0.611492 -1.65184 
v 1.71027 1.38634 -1.62777 
v 1.69937 1.45552 -1.65759 
v 1.67542 1.24438 -1.67975 
v 1.68973 1.53997 -1.67318 
v 1.71255 1.6122 -1.64026 
v 1.70359 1.62824 -1.66077 
v 1.68025 1.60621 -1.68513 
v 1.72332 1.90094 -1.61847 
v 1.71334 2.09406 -1.65286 
v 1.70225 2.22983 -1.67113 
v 1.72015 2.3356 -1.65396 
v 1.70527 2.67006 -1.68011 
v 1.73064 2.5369 -1.64036 
v 1.73331 2.70253 -1.64284 
v 1.72406 2.69139 -1.65757 
v 1.70043 2.74078 -1.68936 
v 1.71169 2.76019 -1.67078 
v 1.73326 2.76111 -1.6567 
v 1.65053 0.145819 -1.66087 
v 1.63284 0.0717763 -1.66892 
v 1.6229 0.0814899 -1.67973 
v 1.66212 0.200703 -1.65954 
v 1.65104 0.105907 -1.64395 
v 1.63249 0.028639 -1.65123 
v 1.67899 0.17559 -1.63447 
v 1.67811 0.444221 -1.65404 
v 1.68096 0.118092 -1.61821 
v 1.66429 0.0823407 -1.63705 
v 1.66301 0.0346841 -1.63201 
v 1.6786 0.0566306 -1.61881 
v 1.66349 0.0231024 -1.61884 
v 1.65026 0.0125809 -1.62265 
v 1.68839 0.0888362 -1.60174 
v 1.67881 0.0412284 -1.59703 
v 1.67909 0.0383748 -1.47322 
v 1.66374 0.0176786 0.340155 
v 1.69026 0.0720015 -1.4852 
v 1.67929 0.0372474 1.12496 
v 1.66427 0.0194212 1.5975 
v 1.68762 0.0579532 0.0824326 
v 1.68361 0.0529231 1.53864 
v 1.69181 0.0736253 0.807212 
v 1.69056 0.0906608 1.58188 
v 1.67684 0.0374796 1.59968 
v 1.66389 0.0291137 1.63779 
v 1.67914 0.064636 1.62991 
v 1.65258 0.0528269 1.67152 
v 1.64406 0.024995 1.66455 
v 1.6679 0.150255 1.66359 
v 1.68277 0.162737 1.63871 
v 1.66344 0.314048 1.67748 
v 1.68855 0.134405 1.61535 
v 1.68543 0.579543 1.66187 
v 1.67636 0.606473 1.67505 
v 1.69538 0.443488 1.62516 
v 1.70263 0.903507 1.64127 
v 1.68604 1.30765 1.67591 
v 1.70522 2.19933 1.66184 
v 1.71042 1.0146 1.61018 
v 1.70843 0.666955 1.23699 
v 1.71468 1.2857 1.61156 
v 1.72246 2.46259 1.63838 
v 1.72208 2.71355 1.65098 
v 1.73041 2.46656 1.6081 
v 1.73762 2.73917 1.6227 
v 1.73883 2.59696 1.52333 
v 1.73459 2.11415 0.868638 
v 1.73292 2.75191 1.63775 
v 1.72421 2.75764 1.65156 
v 1.73962 2.73925 1.49938 
v 1.728 2.77078 1.63289 
v 1.72135 2.77241 1.64717 
v 1.73178 2.7653 1.2553 
v 1.69569 2.80551 -0.10584 
v 1.74471 2.70887 0.567037 
v 1.687 2.80996 -1.5742 
v 1.7465 2.30823 0.17401 
v 1.7389 1.95584 0.334827 
v 1.70527 2.67006 -1.68011 
v 1.629 2.59047 -1.70568 
v 1.6709 2.42495 -1.69557 
v 1.66528 2.01971 -1.69413 
v 1.70225 2.22983 -1.67113 
v 1.67292 1.78149 -1.69227 
v 1.68025 1.60621 -1.68513 
v 1.65486 1.78373 -1.69878 
v 1.66199 1.35972 -1.68898 
v 1.68973 1.53997 -1.67318 
v 1.67542 1.24438 -1.67975 
v 1.62378 1.05295 -1.69786 
v 1.65993 0.756213 -1.68039 
v 1.68476 0.611492 -1.65184 
v 1.67811 0.444221 -1.65404 
v 1.63738 0.626625 -1.69033 
v 1.65078 0.412636 -1.67832 
v 1.66212 0.200703 -1.65954 
v 1.61324 0.421971 -1.69398 
v 0.348947 1.59892 -1.70339 
v 1.62355 0.237073 -1.68733 
v 1.6229 0.0814899 -1.67973 
v 1.59334 0.0786071 -1.68944 
v 1.54722 0.109842 -1.69293 
v -1.60278 0.189722 -1.69425 
v 1.58875 0.0543272 -1.68584 
v -1.59911 0.0584462 -1.6877 
v -1.62788 0.780142 -1.69404 
v 1.6157 0.0435678 -1.67282 
v 1.63284 0.0717763 -1.66892 
v 1.63249 0.028639 -1.65123 
v 1.60491 0.0178833 -1.66077 
v 1.65026 0.0125809 -1.62265 
v 1.66301 0.0346841 -1.63201 
v -0.419912 0.0256966 -1.66831 
v -1.6065 0.0379573 -1.67947 
v -1.61545 0.0118903 -1.65361 
v -1.63288 0.02456 -1.66283 
v -1.62977 0.0501338 -1.68106 
v -1.65692 0.0374882 -1.64929 
v -1.66705 0.0195417 -1.62732 
v -1.64709 0.0644846 -1.67473 
v -1.62285 0.0857682 -1.68966 
v -1.63898 0.169512 -1.68722 
v -1.63787 0.319314 -1.69117 
v -1.66817 0.344136 -1.67536 
v -1.67411 0.193443 -1.65965 
v -1.66855 0.683575 -1.6787 
v -1.67983 0.584052 -1.66965 
v -1.65198 0.787119 -1.68681 
v -1.69425 1.02539 -1.66157 
v -1.67596 1.09025 -1.67968 
v -1.70006 1.34278 -1.66204 
v -1.67997 1.52918 -1.68074 
v -1.66247 1.77721 -1.69408 
v -1.6717 0.0149984 1.62294 
v -1.65844 0.0109342 -1.59791 
v -1.63477 0.0020504 0.978603 
v -1.66409 0.025835 1.66013 
v -1.68542 0.0366826 1.63997 
v -1.6502 0.00512016 1.62803 
v -1.61749 0.0157768 1.6787 
v -1.60489 -0.00172615 1.63872 
v -0.357894 0.0153929 1.67005 
v -1.68304 0.0274619 0.271099 
v -1.6828 0.0253265 1.12991 
v -1.66758 0.0149935 -1.18026 
v -1.66705 0.0195417 -1.62732 
v -1.68128 0.0310812 -1.58321 
v -1.61911 0.00389695 -1.63182 
v -1.63288 0.02456 -1.66283 
v -1.61545 0.0118903 -1.65361 
v -1.60763 -0.00265896 -1.59728 
v -0.713944 0.00714922 -1.64251 
v -0.419912 0.0256966 -1.66831 
v -0.492431 -0.00145209 -1.60815 
v 1.53512 0.00868416 -1.6512 
v 1.60491 0.0178833 -1.66077 
v 0.990345 -0.000351071 -1.61803 
v 1.6022 0.00347579 -1.63185 
v 1.65026 0.0125809 -1.62265 
v 1.64485 0.00511777 -1.5989 
v 1.66349 0.0231024 -1.61884 
v 1.66374 0.0176786 0.340155 
v 1.60067 -0.00152504 -1.60389 
v 1.63514 0.00328636 -0.560713 
v 1.5997 -0.00260687 -1.34648 
v 1.6424 0.0065726 1.6219 
v 1.66427 0.0194212 1.5975 
v 1.66389 0.0291137 1.63779 
v 1.62062 0.000371337 0.918976 
v 1.64446 0.0115676 1.63935 
v 1.64406 0.024995 1.66455 
v 1.59837 0.0168442 1.67975 
v 1.60935 -4.31538e-05 1.62712 
v 1.61572 -0.00159693 1.29231 
v 1.56216 0.00550056 1.65864 
v 1.09546 0.0178195 1.67396 
v 1.40345 -0.00265384 1.62639 
v 0.502149 0.00786448 1.6585 
v -0.729283 -0.00169873 1.61675 
v -1.48167 -0.00179291 1.46833 
v 0.76779 -0.00173473 1.61748 
v -0.212646 0.0103586 1.33295 
v -0.292274 0.0237304 0.561019 
v 0.392042 0.0108017 1.27063 
v 1.15681 0.00816596 1.00807 
v 0.183737 0.0236645 0.505881 
v -0.950319 0.0191786 0.0234166 
v -0.316193 0.0251777 -0.122029 
v 0.385408 0.0232581 -0.124612 
v -0.477178 0.020304 -0.641126 
v 0.365795 0.0225688 -0.393668 
v -0.265472 0.016523 -0.992262 
v 0.635404 0.0181624 -0.629496 
v 0.852207 0.0125009 -0.958555 
v 1.33836 0.0062083 -0.422485 
v 1.3358 0.00836587 0.0407145 
v 1.52261 -0.0010891 0.834754 
v -1.67248 2.81878 -0.709388 
v -1.67206 2.81826 -1.56708 
v -1.70303 2.80357 -1.41074 
v -1.69469 2.8084 -1.56942 
v -1.73042 2.77832 -1.64192 
v -1.6938 2.80514 -1.62739 
v -1.68465 2.7864 -1.66554 
v -1.66456 2.80815 -1.64797 
v -1.65098 2.78762 -1.68085 
v -1.65392 2.81862 -1.62714 
v -1.6305 2.81539 -1.6472 
v 1.60426 2.80604 -1.66771 
v -1.64569 2.82411 -1.56321 
v -1.62261 2.82389 -1.61512 
v -1.54142 2.82729 -1.57519 
v -1.24771 2.82617 -1.59633 
v -1.62931 2.82615 1.56559 
v 1.52321 2.8227 -1.62878 
v 1.61656 2.81781 -1.64587 
v 1.65322 2.81 -1.656 
v 1.65595 2.79492 -1.67661 
v 1.61613 2.82352 -1.61911 
v 1.67731 2.80584 -1.64788 
v 1.69223 2.78658 -1.66638 
v 1.65322 2.81786 -1.62955 
v 1.68246 2.80791 -1.62985 
v 1.72765 2.77477 -1.64862 
v 1.6661 2.81819 -1.56854 
v 1.687 2.80996 -1.5742 
v 1.73105 2.77101 -0.25871 
v 1.63891 2.82468 -1.55117 
v 1.09344 2.82682 -1.59013 
v 1.66178 2.82099 -0.168821 
v -1.39413 2.82623 1.59974 
v 1.59647 2.8276 -1.22058 
v 1.69569 2.80551 -0.10584 
v 1.63612 2.82444 1.06046 
v 1.68739 2.80835 1.52985 
v 1.728 2.77078 1.63289 
v 1.63062 2.82429 1.55867 
v 1.54185 2.82638 1.58967 
v 0.494366 2.82532 1.60069 
v 1.69321 2.80009 1.61571 
v 1.72135 2.77241 1.64717 
v 1.67694 2.78323 1.6678 
v 1.66475 2.81589 1.59706 
v 1.65761 2.81061 1.63727 
v 1.642 2.79949 1.66614 
v 1.62443 2.82141 1.61709 
v 1.60237 2.81851 1.6329 
v 1.60158 2.80742 1.65948 
v -1.62676 2.8218 1.61586 
v -1.60747 2.80678 1.65692 
v -1.60105 2.79325 1.67526 
v -1.65602 2.79264 1.66474 
v -1.66377 2.81226 1.62675 
v -1.68544 2.7791 1.66579 
v -1.69997 2.78491 1.63958 
v -1.66397 2.81882 1.59601 
v -1.70798 2.7975 1.59355 
v -1.72819 2.77195 1.63926 
v -1.68475 2.8128 1.55502 
v -1.70553 2.8031 0.516609 
v -1.72952 2.77794 1.56093 
v -1.73149 2.77968 0.0247354 

vn -0.629921 0.244094 0.732283 
vn -0.858268 0.00787402 0.511811 
vn -0.661417 0.125984 0.740157 
vn -0.937008 0.173228 0.307087 
vn -0.653543 0.622047 0.440945 
vn -0.661417 0.11811 0.740157 
vn -0.535433 0.425197 0.732283 
vn -0.464567 0.76378 0.448819 
vn -0.496063 0.551181 0.669291 
vn -0.692913 0 0.716535 
vn -0.472441 0.181102 0.866142 
vn -0.385827 0.338583 0.858268 
vn -0.244094 0.732283 0.637795 
vn -0.181102 0.503937 0.850394 
vn -0.0629921 0.708661 0.700787 
vn -0.244094 0.0393701 0.968504 
vn -0.338583 0 0.944882 
vn -0.133858 0.228346 0.968504 
vn -0.00787402 0.488189 0.874016 
vn 0 0.456693 0.889764 
vn -0.0551181 0.0629921 1 
vn 0 0.299213 0.952756 
vn 0.0629921 0.574803 0.818898 
vn 0.0393701 0.834646 0.543307 
vn 0.173228 0.779528 0.598425 
vn -0.0393701 -0.0314961 1 
vn -0.00787402 0.102362 0.992126 
vn 0 0.133858 0.992126 
vn 0.0787402 0.330709 0.944882 
vn 0.354331 0.401575 0.84252 
vn 0.385827 0.708661 0.590551 
vn 0.653543 0.574803 0.488189 
vn 0.259843 0.19685 0.944882 
vn 0.606299 0.149606 0.779528 
vn 0.748031 0.181102 0.637795 
vn 0.80315 -0.0314961 0.598425 
vn 0.488189 0.0629921 0.866142 
vn 0.779528 -0.00787402 0.629921 
vn 0.110236 0.0787402 0.992126 
vn -0.700787 -0.023622 -0.716535 
vn -0.80315 -0.0629921 -0.590551 
vn -0.566929 -0.023622 -0.818898 
vn -0.503937 0 -0.866142 
vn -0.76378 -0.00787402 -0.645669 
vn -0.574803 -0.00787402 -0.818898 
vn -0.338583 -0.015748 -0.937008 
vn -0.645669 0 -0.76378 
vn -0.622047 -0.0629921 -0.779528 
vn -0.779528 -0.023622 -0.622047 
vn -0.496063 0.0944882 -0.858268 
vn -0.543307 0.110236 -0.834646 
vn -0.488189 0.11811 -0.866142 
vn -0.267717 0.110236 -0.952756 
vn -0.409449 0.401575 -0.818898 
vn -0.472441 0.425197 -0.771654 
vn -0.622047 0.370079 -0.692913 
vn -0.669291 0.669291 -0.322835 
vn -0.401575 0.677165 -0.614173 
vn -0.15748 0.661417 -0.732283 
vn -0.0708661 0.417323 -0.905512 
vn -0.0551181 0.212598 -0.976378 
vn 0 0.385827 -0.92126 
vn 0.00787402 0.80315 -0.598425 
vn -0.0629921 0.0551181 -1 
vn 0.0393701 0.551181 -0.834646 
vn 0.188976 0.716535 -0.669291 
vn -0.00787402 0.181102 -0.984252 
vn 0.322835 0.480315 -0.811024 
vn 0.456693 0.685039 -0.566929 
vn 0.724409 0.622047 -0.299213 
vn 0.598425 0.307087 -0.740157 
vn 0.629921 0.133858 -0.771654 
vn 0.322835 0.133858 -0.937008 
vn 0.0708661 0.259843 -0.96063 
vn 0.0393701 0.0393701 -1 
vn 0.519685 -0.00787402 0.858268 
vn 0.740157 -0.00787402 0.677165 
vn 0.149606 0 0.992126 
vn 0.440945 -0.00787402 0.897638 
vn 0.692913 -0.00787402 0.716535 
vn 0.00787402 0 1 
vn 0.456693 -0.015748 0.889764 
vn 0.692913 -0.0314961 0.724409 
vn 0.125984 0 0.992126 
vn 0 -0.00787402 1 
vn 0.00787402 -0.00787402 1 
vn -0.015748 0 1 
vn -0.0708661 0.0314961 1 
vn -0.181102 -0.00787402 0.984252 
vn -0.00787402 -0.00787402 1 
vn -0.00787402 0 1 
vn -0.0944882 -0.00787402 0.992126 
vn -0.23622 0.00787402 0.968504 
vn -0.559055 0 0.834646 
vn -0.346457 0 0.937008 
vn -0.811024 -0.015748 0.590551 
vn -0.92126 -0.00787402 0.393701 
vn -0.622047 -0.00787402 0.787402 
vn -0.692913 -0.015748 0.724409 
vn -0.937008 -0.015748 0.346457 
vn -0.866142 -0.023622 0.496063 
vn -0.181102 -0.00787402 0.984252 
vn -0.401575 -0.015748 0.913386 
vn -0.685039 -0.023622 0.724409 
vn -0.787402 -0.188976 0.590551 
vn -0.519685 -0.0866142 0.850394 
vn -0.188976 -0.11811 0.976378 
vn -0.023622 -0.00787402 1 
vn -0.834646 -0.448819 0.314961 
vn -0.551181 -0.653543 0.519685 
vn -0.503937 -0.362205 0.779528 
vn -0.181102 -0.748031 0.637795 
vn -0.181102 -0.362205 0.913386 
vn 0 -0.181102 0.984252 
vn 0.00787402 -0.527559 0.850394 
vn 0 -0.80315 0.598425 
vn 0.181102 -0.433071 0.88189 
vn 0 -0.771654 0.637795 
vn 0.15748 -0.76378 0.629921 
vn 0.535433 -0.590551 0.606299 
vn 0.00787402 -0.165354 0.984252 
vn 0.275591 -0.188976 0.944882 
vn 0.677165 -0.220472 0.700787 
vn 0.0629921 -0.0314961 1 
vn 0.385827 -0.0393701 0.92126 
vn 0.779528 -0.0708661 0.622047 
vn 0.220472 -0.00787402 0.976378 
vn 0.125984 0 0.992126 
vn 0.614173 -0.0472441 0.787402 
vn -1 0.015748 -0.00787402 
vn -1 -0.015748 0.015748 
vn -1 0 0.015748 
vn -1 -0.015748 0.015748 
vn -1 -0.023622 -0.00787402 
vn -1 -0.023622 0.00787402 
vn -1 -0.015748 -0.015748 
vn -1 -0.023622 -0.00787402 
vn -1 -0.023622 0 
vn -0.992126 0.149606 0 
vn -0.984252 0.173228 0 
vn -1 0.0708661 -0.00787402 
vn -0.913386 0.409449 -0.023622 
vn -1 -0.015748 -0.0314961 
vn -0.976378 0.015748 -0.19685 
vn -0.992126 -0.015748 -0.110236 
vn -0.96063 -0.0393701 -0.259843 
vn -0.80315 -0.0629921 -0.590551 
vn -0.779528 -0.023622 -0.622047 
vn -0.913386 -0.023622 -0.409449 
vn -0.700787 -0.023622 -0.716535 
vn -0.76378 -0.00787402 -0.645669 
vn -0.96063 0.181102 -0.220472 
vn -0.496063 0.0944882 -0.858268 
vn -0.622047 0.370079 -0.692913 
vn -0.669291 0.669291 -0.322835 
vn -0.574803 0.818898 0 
vn -0.811024 0.582677 0 
vn -0.913386 0.409449 0 
vn -0.787402 0.614173 0.023622 
vn -1 0.0708661 0 
vn -0.968504 0.251969 0.00787402 
vn -0.92126 0.377953 0.0629921 
vn -0.590551 0.795276 0.133858 
vn -0.653543 0.622047 0.440945 
vn -0.937008 0.173228 0.307087 
vn -0.992126 0.0393701 0.102362 
vn -0.992126 -0.015748 0.0944882 
vn -0.858268 0.00787402 0.511811 
vn -0.96063 -0.00787402 0.275591 
vn -0.692913 0 0.716535 
vn -0.92126 -0.00787402 0.393701 
vn -0.984252 -0.00787402 0.165354 
vn -0.811024 -0.015748 0.590551 
vn -0.937008 -0.015748 0.346457 
vn -0.992126 -0.015748 0.0866142 
vn -1 -0.023622 0.0708661 
vn -0.96063 -0.0314961 0.267717 
vn -0.866142 -0.023622 0.496063 
vn -0.787402 -0.188976 0.590551 
vn -0.992126 -0.102362 0.0314961 
vn -0.968504 -0.165354 0.173228 
vn -0.834646 -0.448819 0.314961 
vn -0.905512 -0.425197 0.023622 
vn -0.622047 -0.771654 0.133858 
vn -0.779528 -0.622047 0 
vn -0.952756 -0.291339 0 
vn -0.771654 -0.637795 0 
vn -0.992126 -0.133858 0 
vn -0.897638 -0.448819 0 
vn -0.456693 -0.889764 0 
vn -0.84252 -0.543307 -0.0472441 
vn -0.976378 -0.220472 -0.00787402 
vn -1 -0.023622 -0.0551181 
vn -0.984252 -0.15748 -0.11811 
vn -0.850394 -0.267717 -0.464567 
vn -0.622047 -0.700787 -0.346457 
vn -0.968504 -0.0551181 -0.251969 
vn -0.685039 -0.307087 -0.653543 
vn -0.96063 -0.023622 -0.259843 
vn -0.787402 -0.110236 -0.606299 
vn -0.692913 -0.188976 -0.700787 
vn -0.795276 -0.102362 -0.590551 
vn -0.787402 -0.0708661 -0.614173 
vn -0.913386 -0.0472441 -0.409449 
vn -0.811024 -0.023622 -0.582677 
vn -0.598425 -0.023622 -0.795276 
vn -0.834646 0.015748 -0.551181 
vn -0.708661 -0.00787402 -0.708661 
vn -0.913386 -0.023622 -0.409449 
vn -0.992126 -0.015748 -0.110236 
vn -0.811024 -0.015748 -0.582677 
vn -0.519685 0 -0.850394 
vn -0.76378 -0.023622 -0.645669 
vn -0.952756 -0.023622 -0.307087 
vn -0.858268 -0.015748 -0.511811 
vn -0.748031 -0.00787402 -0.661417 
vn -0.992126 -0.015748 -0.0866142 
vn -0.944882 -0.015748 -0.322835 
vn -0.858268 -0.00787402 -0.519685 
vn -0.645669 0 -0.76378 
vn -0.574803 -0.00787402 -0.818898 
vn -0.96063 -0.00787402 -0.267717 
vn -0.944882 0 -0.322835 
vn 0.984252 0.19685 0 
vn 0.968504 0.259843 0 
vn 0.834646 0.551181 0 
vn 1 0.00787402 0 
vn 1 0.0472441 -0.00787402 
vn 1 -0.023622 -0.00787402 
vn 1 -0.023622 -0.00787402 
vn 1 -0.023622 0 
vn 1 -0.0314961 0 
vn 0.724409 0.622047 -0.299213 
vn 1 -0.015748 -0.0314961 
vn 0.992126 -0.0393701 -0.110236 
vn 0.937008 0.346457 -0.00787402 
vn 0.992126 0.102362 -0.0472441 
vn 0.984252 -0.015748 -0.165354 
vn 1 -0.015748 -0.00787402 
vn 0.92126 -0.0314961 -0.385827 
vn 0.992126 -0.015748 -0.110236 
vn 1 -0.023622 -0.0787402 
vn 0.913386 -0.015748 -0.409449 
vn 0.826772 -0.023622 -0.566929 
vn 0.952756 -0.015748 -0.291339 
vn 0.858268 -0.023622 -0.519685 
vn 0.629921 -0.015748 -0.779528 
vn 0.716535 -0.0314961 -0.692913 
vn 0.952756 -0.023622 -0.299213 
vn 0.834646 -0.00787402 -0.551181 
vn 0.574803 -0.015748 -0.818898 
vn 0.968504 -0.015748 -0.244094 
vn 0.858268 -0.023622 -0.511811 
vn 0.692913 -0.023622 -0.724409 
vn 0.850394 -0.023622 -0.527559 
vn 0.692913 -0.0314961 -0.724409 
vn 0.92126 -0.015748 -0.393701 
vn 0.92126 -0.0708661 -0.385827 
vn 0.811024 -0.0393701 -0.582677 
vn 0.629921 0.133858 -0.771654 
vn 0.598425 0.307087 -0.740157 
vn 0.818898 0.275591 -0.503937 
vn 0.779528 -0.173228 -0.598425 
vn 0.76378 -0.19685 -0.614173 
vn 0.503937 -0.133858 -0.850394 
vn 0.708661 -0.0551181 -0.708661 
vn 0.76378 -0.102362 -0.637795 
vn 0.559055 -0.440945 -0.708661 
vn 0.84252 -0.102362 -0.527559 
vn 0.795276 -0.023622 -0.606299 
vn 0.795276 -0.0708661 -0.606299 
vn 0.614173 -0.00787402 -0.787402 
vn 0.685039 -0.338583 -0.645669 
vn 0.874016 -0.188976 -0.440945 
vn 0.748031 -0.606299 -0.275591 
vn 0.488189 -0.787402 -0.377953 
vn 0.968504 -0.0944882 -0.228346 
vn 0.897638 -0.425197 -0.102362 
vn 0.850394 -0.519685 0 
vn 0.637795 -0.771654 0 
vn 0.984252 -0.188976 -0.00787402 
vn 0.889764 -0.464567 0 
vn 0.692913 -0.716535 0.0551181 
vn 0.952756 -0.314961 0 
vn 0.944882 -0.330709 0.00787402 
vn 0.984252 -0.173228 0 
vn 0.992126 -0.11811 0.0708661 
vn 0.905512 -0.417323 0.0866142 
vn 0.795276 -0.511811 0.330709 
vn 0.929134 -0.188976 0.330709 
vn 0.677165 -0.220472 0.700787 
vn 0.535433 -0.590551 0.606299 
vn 0.779528 -0.0708661 0.622047 
vn 0.913386 -0.0393701 0.393701 
vn 0.692913 -0.0314961 0.724409 
vn 0.976378 -0.0472441 0.204724 
vn 0.874016 -0.023622 0.488189 
vn 0.692913 -0.00787402 0.716535 
vn 0.976378 -0.023622 0.220472 
vn 0.929134 -0.015748 0.362205 
vn 0.740157 -0.00787402 0.677165 
vn 0.779528 -0.00787402 0.629921 
vn 0.992126 -0.015748 0.0944882 
vn 1 -0.023622 0.00787402 
vn 0.992126 -0.015748 0.125984 
vn 0.937008 -0.023622 0.346457 
vn 0.80315 -0.0314961 0.598425 
vn 0.984252 -0.023622 0.165354 
vn 0.984252 0.0787402 0.173228 
vn 1 -0.015748 0.023622 
vn 1 -0.015748 0.00787402 
vn 0.929134 0.125984 0.338583 
vn 0.748031 0.181102 0.637795 
vn 0.984252 0.165354 0.00787402 
vn 0.826772 0.543307 0.165354 
vn 0.653543 0.574803 0.488189 
vn 0.889764 0.456693 0 
vn 0.566929 0.826772 0 
vn 1 0.0629921 0.00787402 
vn 0.496063 0.866142 -0.015748 
vn 1 -0.00787402 0.00787402 
vn 1 -0.023622 0.00787402 
vn 0.692913 -0.0314961 -0.724409 
vn 0.0866142 -0.00787402 -1 
vn 0.338583 -0.00787402 -0.937008 
vn 0.417323 0.00787402 -0.905512 
vn 0.692913 -0.023622 -0.724409 
vn 0.488189 -0.00787402 -0.874016 
vn 0.574803 -0.015748 -0.818898 
vn 0.220472 -0.00787402 -0.976378 
vn 0.440945 -0.015748 -0.897638 
vn 0.716535 -0.0314961 -0.692913 
vn 0.629921 -0.015748 -0.779528 
vn 0.173228 -0.00787402 -0.984252 
vn 0.566929 -0.015748 -0.826772 
vn 0.826772 -0.023622 -0.566929 
vn 0.795276 -0.023622 -0.606299 
vn 0.362205 -0.015748 -0.929134 
vn 0.543307 -0.023622 -0.84252 
vn 0.708661 -0.0551181 -0.708661 
vn 0.19685 -0.015748 -0.984252 
vn 0 -0.00787402 -1 
vn 0.385827 -0.0314961 -0.92126 
vn 0.503937 -0.133858 -0.850394 
vn 0.165354 -0.11811 -0.976378 
vn 0.015748 -0.0629921 -1 
vn -0.0629921 -0.023622 -1 
vn 0.125984 -0.346457 -0.929134 
vn -0.0393701 -0.220472 -0.976378 
vn -0.220472 -0.00787402 -0.976378 
vn 0.433071 -0.377953 -0.818898 
vn 0.76378 -0.19685 -0.614173 
vn 0.559055 -0.440945 -0.708661 
vn 0.212598 -0.716535 -0.669291 
vn 0.488189 -0.787402 -0.377953 
vn 0.685039 -0.338583 -0.645669 
vn 0 -0.669291 -0.740157 
vn -0.0787402 -0.535433 -0.84252 
vn -0.15748 -0.84252 -0.519685 
vn -0.385827 -0.645669 -0.653543 
vn -0.362205 -0.354331 -0.858268 
vn -0.685039 -0.307087 -0.653543 
vn -0.622047 -0.700787 -0.346457 
vn -0.692913 -0.188976 -0.700787 
vn -0.23622 -0.0866142 -0.968504 
vn -0.448819 -0.0393701 -0.897638 
vn -0.291339 -0.00787402 -0.952756 
vn -0.598425 -0.023622 -0.795276 
vn -0.787402 -0.0708661 -0.614173 
vn -0.519685 0 -0.850394 
vn -0.708661 -0.00787402 -0.708661 
vn -0.385827 0 -0.92126 
vn -0.76378 -0.023622 -0.645669 
vn -0.527559 -0.015748 -0.850394 
vn -0.748031 -0.00787402 -0.661417 
vn -0.566929 -0.00787402 -0.818898 
vn -0.346457 -0.00787402 -0.937008 
vn -0.622047 -0.771654 0.133858 
vn -0.472441 -0.88189 -0.0551181 
vn -0.165354 -0.984252 -0.00787402 
vn -0.551181 -0.653543 0.519685 
vn -0.834646 -0.448819 0.314961 
vn -0.314961 -0.929134 0.181102 
vn -0.181102 -0.748031 0.637795 
vn -0.0866142 -0.976378 0.204724 
vn 0 -0.80315 0.598425 
vn -0.771654 -0.637795 0 
vn -0.779528 -0.622047 0 
vn -0.456693 -0.889764 0 
vn -0.622047 -0.700787 -0.346457 
vn -0.84252 -0.543307 -0.0472441 
vn -0.181102 -0.944882 -0.267717 
vn -0.385827 -0.645669 -0.653543 
vn -0.15748 -0.84252 -0.519685 
vn -0.110236 -0.992126 -0.0708661 
vn 0 -0.913386 -0.409449 
vn 0 -0.669291 -0.740157 
vn 0 -0.992126 -0.110236 
vn 0.00787402 -0.866142 -0.496063 
vn 0.212598 -0.716535 -0.669291 
vn 0 -0.992126 -0.125984 
vn 0.11811 -0.944882 -0.307087 
vn 0.488189 -0.787402 -0.377953 
vn 0.425197 -0.905512 -0.0708661 
vn 0.748031 -0.606299 -0.275591 
vn 0.637795 -0.771654 0 
vn 0.0787402 -0.992126 -0.0866142 
vn 0.283465 -0.96063 0 
vn 0.110236 -0.992126 0 
vn 0.409449 -0.905512 0.125984 
vn 0.692913 -0.716535 0.0551181 
vn 0.795276 -0.511811 0.330709 
vn 0.125984 -0.992126 0 
vn 0.464567 -0.834646 0.291339 
vn 0.535433 -0.590551 0.606299 
vn 0.15748 -0.76378 0.629921 
vn 0.125984 -0.976378 0.15748 
vn 0.149606 -0.992126 0 
vn 0.023622 -0.937008 0.338583 
vn 0 -0.771654 0.637795 
vn 0 -0.992126 0.125984 
vn 0 -0.92126 0.393701 
vn 0 -1 0.0629921 
vn 0 -1 -0.00787402 
vn 0 -1 0.0866142 
vn 0 -1 -0.0314961 
vn 0.00787402 -1 -0.00787402 
vn -0.00787402 -1 -0.023622 
vn -0.015748 -1 -0.00787402 
vn -0.00787402 -1 -0.00787402 
vn 0.015748 -1 0 
vn 0 -1 0 
vn -0.00787402 -1 0 
vn 0.00787402 -1 0.00787402 
vn -0.00787402 -1 0.00787402 
vn 0.00787402 -1 0.023622 
vn -0.00787402 -1 0.00787402 
vn -0.00787402 -1 0.015748 
vn -0.023622 -1 0 
vn -0.0393701 -1 0 
vn -0.00787402 -1 0.00787402 
vn -0.314961 0.952756 0 
vn -0.307087 0.952756 -0.0314961 
vn -0.574803 0.818898 0 
vn -0.511811 0.858268 -0.023622 
vn -0.669291 0.669291 -0.322835 
vn -0.440945 0.866142 -0.23622 
vn -0.401575 0.677165 -0.614173 
vn -0.275591 0.84252 -0.464567 
vn -0.15748 0.661417 -0.732283 
vn -0.204724 0.952756 -0.204724 
vn -0.0629921 0.889764 -0.448819 
vn 0.00787402 0.80315 -0.598425 
vn -0.125984 0.992126 -0.023622 
vn -0.0551181 0.992126 -0.141732 
vn -0.00787402 1 -0.0393701 
vn 0 0.992126 -0.102362 
vn -0.102362 0.992126 0.0314961 
vn 0 0.968504 -0.244094 
vn 0.0393701 0.937008 -0.346457 
vn 0.188976 0.874016 -0.440945 
vn 0.188976 0.716535 -0.669291 
vn 0.0629921 0.992126 -0.110236 
vn 0.425197 0.834646 -0.346457 
vn 0.456693 0.685039 -0.566929 
vn 0.204724 0.968504 -0.15748 
vn 0.448819 0.88189 -0.15748 
vn 0.724409 0.622047 -0.299213 
vn 0.338583 0.937008 0.125984 
vn 0.496063 0.866142 -0.015748 
vn 0.834646 0.551181 0 
vn 0.149606 0.992126 -0.015748 
vn 0 1 -0.0551181 
vn 0.267717 0.96063 0 
vn 0 0.992126 0.141732 
vn 0.0393701 1 0 
vn 0.566929 0.826772 0 
vn 0.165354 0.984252 0 
vn 0.488189 0.874016 0.00787402 
vn 0.826772 0.543307 0.165354 
vn 0.141732 0.992126 0.015748 
vn 0.00787402 1 0.0866142 
vn 0 0.992126 0.141732 
vn 0.511811 0.84252 0.181102 
vn 0.653543 0.574803 0.488189 
vn 0.385827 0.708661 0.590551 
vn 0.314961 0.944882 0.0866142 
vn 0.283465 0.897638 0.338583 
vn 0.173228 0.779528 0.598425 
vn 0.102362 0.976378 0.19685 
vn 0.0472441 0.952756 0.299213 
vn 0.0393701 0.834646 0.543307 
vn -0.0787402 0.968504 0.23622 
vn -0.0629921 0.866142 0.488189 
vn -0.0629921 0.708661 0.700787 
vn -0.244094 0.732283 0.637795 
vn -0.314961 0.889764 0.338583 
vn -0.496063 0.551181 0.669291 
vn -0.464567 0.76378 0.448819 
vn -0.291339 0.952756 0.110236 
vn -0.590551 0.795276 0.133858 
vn -0.653543 0.622047 0.440945 
vn -0.401575 0.913386 0.015748 
vn -0.566929 0.826772 0 
vn -0.787402 0.614173 0.023622 
vn -0.811024 0.582677 0 

vt 0.397484 0.293333 
vt 0.396561 0.285274 
vt 0.399035 0.28977 
vt 0.395315 0.293088 
vt 0.396967 0.295381 
vt 0.401752 0.287712 
vt 0.400638 0.29483 
vt 0.399956 0.297418 
vt 0.403167 0.295854 
vt 0.400336 0.279923 
vt 0.404248 0.288756 
vt 0.405864 0.291544 
vt 0.406551 0.297608 
vt 0.409371 0.29389 
vt 0.413069 0.297417 
vt 0.407193 0.286217 
vt 0.405685 0.194799 
vt 0.409772 0.290591 
vt 0.416781 0.294563 
vt 0.597727 0.292708 
vt 0.4112 0.287815 
vt 0.548577 0.290965 
vt 0.764529 0.293389 
vt 0.763063 0.297608 
vt 0.767644 0.296238 
vt 0.534787 0.280167 
vt 0.546431 0.284366 
vt 0.679044 0.287995 
vt 0.76429 0.290394 
vt 0.770577 0.291547 
vt 0.771764 0.29419 
vt 0.777558 0.292986 
vt 0.769256 0.289551 
vt 0.773561 0.289639 
vt 0.777693 0.291151 
vt 0.777725 0.286232 
vt 0.771666 0.287265 
vt 0.775014 0.23205 
vt 0.764152 0.286575 
vt 0.41227 0.341849 
vt 0.40239 0.340297 
vt 0.401548 0.345155 
vt 0.433087 0.346898 
vt 0.434314 0.342165 
vt 0.445502 0.345191 
vt 0.439415 0.349931 
vt 0.479209 0.344305 
vt 0.400561 0.342784 
vt 0.391584 0.339926 
vt 0.388657 0.341751 
vt 0.390044 0.347207 
vt 0.389069 0.344482 
vt 0.390381 0.34891 
vt 0.386439 0.34769 
vt 0.38539 0.344787 
vt 0.38644 0.340902 
vt 0.383827 0.340137 
vt 0.38364 0.346037 
vt 0.383915 0.350195 
vt 0.386493 0.35206 
vt 0.389 0.352752 
vt 0.386695 0.420817 
vt 0.380019 0.692654 
vt 0.392473 0.353235 
vt 0.383567 0.695098 
vt 0.381751 0.698208 
vt 0.388108 0.681436 
vt 0.384855 0.700196 
vt 0.382254 0.702441 
vt 0.382776 0.706992 
vt 0.385325 0.7046 
vt 0.388171 0.702915 
vt 0.388406 0.700799 
vt 0.386981 0.696195 
vt 0.391229 0.693846 
vt 0.770411 0.197103 
vt 0.771754 0.138337 
vt 0.764281 0.15439 
vt 0.768494 0.138317 
vt 0.770219 0.0646626 
vt 0.681405 0.219209 
vt 0.766439 0.0520757 
vt 0.768482 0.0339146 
vt 0.763202 0.117125 
vt 0.555482 0.1626 
vt 0.618453 0.229077 
vt 0.54873 0.256131 
vt 0.540408 0.276321 
vt 0.537678 0.24586 
vt 0.53807 0.192912 
vt 0.513254 0.185775 
vt 0.410215 0.123577 
vt 0.407321 0.128234 
vt 0.40298 0.146563 
vt 0.404829 0.119183 
vt 0.398986 0.154831 
vt 0.397496 0.169458 
vt 0.402827 0.115701 
vt 0.402111 0.0794034 
vt 0.398093 0.0619493 
vt 0.400059 0.0329086 
vt 0.407604 0.0867111 
vt 0.405782 0.0338137 
vt 0.402368 0.0322695 
vt 0.401846 0.00883716 
vt 0.404813 0.0113273 
vt 0.410087 0.0103024 
vt 0.417567 0.0334892 
vt 0.399752 0.0056265 
vt 0.403403 0.00499094 
vt 0.404866 0.00735474 
vt 0.409333 0.00424618 
vt 0.409954 0.00756693 
vt 0.538341 0.00929111 
vt 0.501317 0.00594008 
vt 0.547084 0.00278533 
vt 0.760633 0.00445116 
vt 0.705683 0.002307 
vt 0.76078 0.0022999 
vt 0.76639 0.00298154 
vt 0.754373 0.00833291 
vt 0.761606 0.00733095 
vt 0.767162 0.00619978 
vt 0.756823 0.0119328 
vt 0.763284 0.0113803 
vt 0.769521 0.0165617 
vt 0.763822 0.0570259 
vt 0.761172 0.0303609 
vt 0.767357 0.0188113 
vt 0.64291 0.981289 
vt 0.698294 0.914201 
vt 0.701623 0.966868 
vt 0.739241 0.894226 
vt 0.655179 0.910603 
vt 0.70544 0.867387 
vt 0.611488 0.892786 
vt 0.632719 0.878103 
vt 0.725271 0.760002 
vt 0.686659 0.990575 
vt 0.735776 0.992214 
vt 0.585153 0.991355 
vt 0.498395 0.99421 
vt 0.506407 0.952563 
vt 0.497217 0.989359 
vt 0.502566 0.936857 
vt 0.499328 0.975255 
vt 0.495673 0.978886 
vt 0.495119 0.989084 
vt 0.49717 0.953611 
vt 0.494458 0.969359 
vt 0.494815 0.94819 
vt 0.496916 0.992597 
vt 0.49343 0.991997 
vt 0.494683 0.99391 
vt 0.496755 0.995501 
vt 0.52207 0.99954 
vt 0.678848 0.99615 
vt 0.796507 0.994848 
vt 0.846663 0.996552 
vt 0.77602 0.989453 
vt 0.820543 0.993199 
vt 0.851759 0.99411 
vt 0.850357 0.99954 
vt 0.855319 0.995943 
vt 0.854606 0.993415 
vt 0.850889 0.989553 
vt 0.851768 0.910784 
vt 0.856163 0.986135 
vt 0.854769 0.905058 
vt 0.859943 0.981089 
vt 0.856936 0.870733 
vt 0.853964 0.811183 
vt 0.858368 0.856123 
vt 0.857081 0.76331 
vt 0.852632 0.79121 
vt 0.851784 0.771895 
vt 0.856391 0.728952 
vt 0.858617 0.734287 
vt 0.859196 0.710447 
vt 0.850638 0.713298 
vt 0.854591 0.710774 
vt 0.856299 0.708161 
vt 0.852896 0.708469 
vt 0.85446 0.705344 
vt 0.8005 0.706633 
vt 0.768781 0.709767 
vt 0.706686 0.706545 
vt 0.588661 0.712935 
vt 0.607773 0.708082 
vt 0.548101 0.704232 
vt 0.504036 0.706462 
vt 0.525209 0.710855 
vt 0.506394 0.75655 
vt 0.504088 0.711843 
vt 0.499034 0.707782 
vt 0.498747 0.705076 
vt 0.501434 0.721279 
vt 0.495803 0.706895 
vt 0.49969 0.745755 
vt 0.496397 0.713582 
vt 0.49259 0.709672 
vt 0.498393 0.716032 
vt 0.495042 0.723569 
vt 0.497903 0.735399 
vt 0.495405 0.739837 
vt 0.492714 0.739441 
vt 0.495778 0.758075 
vt 0.493599 0.764715 
vt 0.497728 0.756424 
vt 0.501571 0.797842 
vt 0.496145 0.791016 
vt 0.491881 0.775145 
vt 0.494612 0.811093 
vt 0.498978 0.821334 
vt 0.496252 0.835727 
vt 0.494499 0.844424 
vt 0.503204 0.85384 
vt 0.498129 0.860608 
vt 0.495581 0.9064 
vt 0.493199 0.904946 
vt 0.491874 0.937374 
vt 0.498275 0.90958 
vt 0.497746 0.925688 
vt 0.700251 0.467172 
vt 0.698479 0.578535 
vt 0.69618 0.503988 
vt 0.716893 0.484187 
vt 0.702902 0.554722 
vt 0.784312 0.505003 
vt 0.821695 0.534952 
vt 0.816994 0.460781 
vt 0.961163 0.478686 
vt 0.696131 0.650009 
vt 0.901951 0.632936 
vt 0.979533 0.642543 
vt 0.698105 0.639536 
vt 0.701496 0.642658 
vt 0.882674 0.645918 
vt 0.802945 0.630484 
vt 0.976013 0.646882 
vt 0.710994 0.645048 
vt 0.805359 0.64347 
vt 0.878396 0.649122 
vt 0.932693 0.650271 
vt 0.84798 0.647633 
vt 0.840452 0.651044 
vt 0.863578 0.654117 
vt 0.831255 0.653099 
vt 0.823309 0.648974 
vt 0.821581 0.65133 
vt 0.824045 0.654831 
vt 0.791741 0.6467 
vt 0.770673 0.650648 
vt 0.755868 0.653091 
vt 0.744265 0.650686 
vt 0.707742 0.654291 
vt 0.722245 0.649157 
vt 0.704159 0.64936 
vt 0.705354 0.651217 
vt 0.699942 0.655474 
vt 0.697762 0.653188 
vt 0.697823 0.650565 
vt 0.983952 0.652319 
vt 0.992456 0.653812 
vt 0.991444 0.655474 
vt 0.977696 0.651641 
vt 0.98846 0.650631 
vt 0.997391 0.651882 
vt 0.980396 0.648346 
vt 0.950982 0.650597 
vt 0.98674 0.646536 
vt 0.990924 0.648843 
vt 0.996265 0.647996 
vt 0.993482 0.64621 
vt 0.997606 0.646369 
vt 0.999522 0.647266 
vt 0.989815 0.644471 
vt 0.99508 0.643934 
vt 0.995322 0.631049 
vt 0.997928 0.44069 
vt 0.991499 0.632298 
vt 0.995059 0.358273 
vt 0.997417 0.308581 
vt 0.992797 0.467739 
vt 0.993213 0.314839 
vt 0.990935 0.39166 
vt 0.989007 0.310351 
vt 0.99496 0.308438 
vt 0.996138 0.304177 
vt 0.991951 0.305307 
vt 0.993647 0.300195 
vt 0.997002 0.300625 
vt 0.982711 0.301185 
vt 0.981237 0.304218 
vt 0.964733 0.299448 
vt 0.984285 0.306808 
vt 0.935611 0.301697 
vt 0.932687 0.299965 
vt 0.950466 0.305797 
vt 0.900192 0.304159 
vt 0.856059 0.299881 
vt 0.758621 0.301671 
vt 0.888044 0.307483 
vt 0.926064 0.346623 
vt 0.858422 0.307377 
vt 0.729826 0.304543 
vt 0.70238 0.303121 
vt 0.729388 0.307849 
vt 0.699593 0.306495 
vt 0.715163 0.316835 
vt 0.768016 0.385515 
vt 0.698172 0.304929 
vt 0.697445 0.303238 
vt 0.699644 0.319395 
vt 0.695997 0.305371 
vt 0.695704 0.303652 
vt 0.696699 0.345012 
vt 0.690783 0.487937 
vt 0.703099 0.417275 
vt 0.689771 0.642124 
vt 0.746919 0.458484 
vt 0.785389 0.441544 
vt 0.396075 0.703864 
vt 0.404802 0.695253 
vt 0.422837 0.699878 
vt 0.467067 0.699423 
vt 0.444141 0.704038 
vt 0.493059 0.700245 
vt 0.512184 0.701276 
vt 0.492817 0.69825 
vt 0.539082 0.699324 
vt 0.519433 0.702783 
vt 0.551673 0.700994 
vt 0.572558 0.695224 
vt 0.604938 0.699434 
vt 0.620765 0.703288 
vt 0.639024 0.702487 
vt 0.619074 0.696834 
vt 0.642435 0.6986 
vt 0.665692 0.700495 
vt 0.641407 0.694317 
vt 0.513431 0.561012 
vt 0.661624 0.695518 
vt 0.678784 0.695636 
vt 0.678925 0.69232 
vt 0.675484 0.687457 
vt 0.66782 0.356293 
vt 0.681535 0.691808 
vt 0.68213 0.356725 
vt 0.603427 0.353425 
vt 0.683078 0.694715 
vt 0.680245 0.697048 
vt 0.685611 0.697037 
vt 0.686306 0.693651 
vt 0.688815 0.699793 
vt 0.685984 0.701079 
vt 0.685889 0.480677 
vt 0.684481 0.355915 
vt 0.688478 0.354849 
vt 0.686613 0.352935 
vt 0.683132 0.353516 
vt 0.685846 0.349599 
vt 0.688815 0.347801 
vt 0.681757 0.351359 
vt 0.679207 0.354255 
vt 0.670112 0.352483 
vt 0.653703 0.352511 
vt 0.65102 0.348871 
vt 0.667657 0.34776 
vt 0.613983 0.348902 
vt 0.624848 0.347425 
vt 0.602676 0.350767 
vt 0.57673 0.345362 
vt 0.569622 0.347984 
vt 0.542102 0.34461 
vt 0.521738 0.347322 
vt 0.494662 0.349431 
vt 0.00958177 0.701862 
vt 0.0110134 0.363705 
vt 0.0138579 0.634169 
vt 0.0101874 0.706148 
vt 0.00717017 0.704316 
vt 0.0121992 0.702288 
vt 0.0156528 0.707912 
vt 0.0171745 0.703369 
vt 0.153419 0.707055 
vt 0.00777092 0.560023 
vt 0.00793274 0.650141 
vt 0.00988375 0.407412 
vt 0.00979541 0.360551 
vt 0.0077773 0.365167 
vt 0.0154091 0.360158 
vt 0.0133345 0.356428 
vt 0.0157025 0.357691 
vt 0.0167315 0.363815 
vt 0.114384 0.358911 
vt 0.14654 0.355566 
vt 0.138613 0.362629 
vt 0.360244 0.358035 
vt 0.367916 0.356702 
vt 0.300675 0.361614 
vt 0.367537 0.36013 
vt 0.373016 0.360971 
vt 0.372213 0.363575 
vt 0.374993 0.361395 
vt 0.374668 0.567059 
vt 0.367345 0.363093 
vt 0.371176 0.472523 
vt 0.367242 0.390099 
vt 0.372006 0.701554 
vt 0.37489 0.69908 
vt 0.375239 0.703612 
vt 0.369554 0.62779 
vt 0.372316 0.703416 
vt 0.372675 0.706451 
vt 0.367307 0.707912 
vt 0.368342 0.70204 
vt 0.369003 0.666957 
vt 0.363246 0.705451 
vt 0.312225 0.707504 
vt 0.345873 0.701997 
vt 0.247387 0.705572 
vt 0.112836 0.701086 
vt 0.0306215 0.685519 
vt 0.276413 0.701132 
vt 0.169274 0.67127 
vt 0.160553 0.590275 
vt 0.235342 0.664721 
vt 0.318887 0.637142 
vt 0.212554 0.584478 
vt 0.0886331 0.533895 
vt 0.157918 0.518612 
vt 0.234571 0.518324 
vt 0.140313 0.464145 
vt 0.232423 0.490096 
vt 0.163433 0.427292 
vt 0.261879 0.465347 
vt 0.285568 0.430818 
vt 0.338694 0.487052 
vt 0.338415 0.53565 
vt 0.358854 0.618953 
vt 0.00806956 0.251701 
vt 0.00792762 0.341802 
vt 0.00412018 0.325374 
vt 0.00532059 0.342126 
vt 0.000484967 0.350058 
vt 0.00546232 0.348167 
vt 0.00581721 0.352904 
vt 0.00866159 0.350321 
vt 0.00987191 0.354646 
vt 0.00995949 0.347989 
vt 0.0123898 0.350136 
vt 0.365357 0.353525 
vt 0.0108297 0.341338 
vt 0.0133267 0.346724 
vt 0.0221741 0.34257 
vt 0.054189 0.344844 
vt 0.0135006 0.0128067 
vt 0.356488 0.349061 
vt 0.366649 0.350878 
vt 0.370665 0.351989 
vt 0.37124 0.354646 
vt 0.366585 0.348039 
vt 0.373283 0.35121 
vt 0.375449 0.353676 
vt 0.370569 0.349168 
vt 0.37384 0.349353 
vt 0.37971 0.352007 
vt 0.372146 0.342834 
vt 0.374632 0.343466 
vt 0.397228 0.203978 
vt 0.36913 0.340957 
vt 0.309607 0.344867 
vt 0.372066 0.195818 
vt 0.039152 0.00931805 
vt 0.3646 0.306228 
vt 0.37615 0.189216 
vt 0.369545 0.0666384 
vt 0.375401 0.0176387 
vt 0.381352 0.00675672 
vt 0.369044 0.0146273 
vt 0.359456 0.0112343 
vt 0.245225 0.00975555 
vt 0.37636 0.00869173 
vt 0.380559 0.00510806 
vt 0.375475 0.00261068 
vt 0.372858 0.0106687 
vt 0.372304 0.00641978 
vt 0.370993 0.00290084 
vt 0.368487 0.00850379 
vt 0.366131 0.00668764 
vt 0.366157 0.00360733 
vt 0.0137736 0.00754166 
vt 0.0157706 0.0029093 
vt 0.0163932 0.000459969 
vt 0.0101394 0.00172228 
vt 0.00968708 0.00633723 
vt 0.0064113 0.00130665 
vt 0.00486853 0.00436348 
vt 0.00973554 0.00958884 
vt 0.00432887 0.00965118 
vt 0.0013286 0.0042063 
vt 0.00728971 0.0138224 
vt 0.00446648 0.122882 
vt 0.00112687 0.0130745 
vt 0.000478011 0.174555 

usemtl Bodygeom1Mtl

f 1/1/1 2/2/2 3/3/3 
f 2/2/2 1/1/1 4/4/4 
f 1/1/1 5/5/5 4/4/4 
f 2/2/2 6/6/6 3/3/3 
f 5/5/5 1/1/1 7/7/7 
f 7/7/7 1/1/1 3/3/3 
f 8/8/8 5/5/5 7/7/7 
f 9/9/9 8/8/8 7/7/7 
f 6/6/6 2/2/2 10/10/10 
f 11/11/11 3/3/3 6/6/6 
f 3/3/3 11/11/11 7/7/7 
f 6/6/6 10/10/10 11/11/11 
f 7/7/7 12/12/12 9/9/9 
f 12/12/12 7/7/7 11/11/11 
f 12/12/12 13/13/13 9/9/9 
f 13/13/13 12/12/12 14/14/14 
f 13/13/13 14/14/14 15/15/15 
f 16/16/16 12/12/12 11/11/11 
f 17/17/17 11/11/11 10/10/10 
f 11/11/11 17/17/17 16/16/16 
f 12/12/12 18/18/18 14/14/14 
f 12/12/12 16/16/16 18/18/18 
f 14/14/14 19/19/19 15/15/15 
f 14/14/14 18/18/18 19/19/19 
f 19/19/19 20/20/20 15/15/15 
f 21/21/21 16/16/16 17/17/17 
f 18/18/18 16/16/16 21/21/21 
f 18/18/18 22/22/22 19/19/19 
f 20/20/20 19/19/19 22/22/22 
f 23/23/23 15/15/15 20/20/20 
f 15/15/15 23/23/23 24/24/24 
f 24/24/24 23/23/23 25/25/25 
f 18/18/18 21/21/21 26/26/26 
f 18/18/18 27/27/27 22/22/22 
f 27/27/27 18/18/18 26/26/26 
f 22/22/22 28/28/28 20/20/20 
f 27/27/27 28/28/28 22/22/22 
f 23/23/23 20/20/20 29/29/29 
f 29/29/29 20/20/20 28/28/28 
f 25/25/25 23/23/23 30/30/30 
f 25/25/25 30/30/30 31/31/31 
f 30/30/30 32/32/32 31/31/31 
f 23/23/23 33/33/33 30/30/30 
f 33/33/33 23/23/23 29/29/29 
f 32/32/32 30/30/30 34/34/34 
f 33/33/33 34/34/34 30/30/30 
f 32/32/32 34/34/34 35/35/35 
f 36/36/36 35/35/35 34/34/34 
f 34/34/34 37/37/37 36/36/36 
f 34/34/34 33/33/33 37/37/37 
f 38/38/38 36/36/36 37/37/37 
f 29/29/29 39/39/39 33/33/33 
f 37/37/37 33/33/33 39/39/39 
f 28/28/28 39/39/39 29/29/29 
f 40/40/40 41/41/41 42/42/42 
f 42/42/42 43/43/43 40/40/40 
f 44/44/44 40/40/40 43/43/43 
f 43/43/43 45/45/45 44/44/44 
f 45/45/45 43/43/43 46/46/46 
f 42/42/42 46/46/46 43/43/43 
f 46/46/46 47/47/47 45/45/45 
f 42/42/42 41/41/41 48/48/48 
f 49/49/49 48/48/48 41/41/41 
f 50/50/50 48/48/48 49/49/49 
f 48/48/48 51/51/51 42/42/42 
f 48/48/48 50/50/50 52/52/52 
f 51/51/51 48/48/48 52/52/52 
f 53/53/53 46/46/46 42/42/42 
f 42/42/42 51/51/51 53/53/53 
f 51/51/51 52/52/52 54/54/54 
f 51/51/51 54/54/54 53/53/53 
f 55/55/55 52/52/52 50/50/50 
f 55/55/55 54/54/54 52/52/52 
f 56/56/56 55/55/55 50/50/50 
f 57/57/57 55/55/55 56/56/56 
f 55/55/55 57/57/57 58/58/58 
f 58/58/58 54/54/54 55/55/55 
f 54/54/54 58/58/58 59/59/59 
f 54/54/54 60/60/60 53/53/53 
f 54/54/54 59/59/59 60/60/60 
f 61/61/61 53/53/53 60/60/60 
f 62/62/62 60/60/60 59/59/59 
f 60/60/60 62/62/62 61/61/61 
f 59/59/59 63/63/63 62/62/62 
f 61/61/61 64/64/64 53/53/53 
f 62/62/62 64/64/64 61/61/61 
f 46/46/46 53/53/53 64/64/64 
f 65/65/65 62/62/62 63/63/63 
f 65/65/65 63/63/63 66/66/66 
f 62/62/62 65/65/65 67/67/67 
f 67/67/67 64/64/64 62/62/62 
f 65/65/65 66/66/66 68/68/68 
f 68/68/68 66/66/66 69/69/69 
f 70/70/70 71/71/71 69/69/69 
f 68/68/68 69/69/69 71/71/71 
f 68/68/68 71/71/71 72/72/72 
f 72/72/72 73/73/73 68/68/68 
f 74/74/74 65/65/65 68/68/68 
f 74/74/74 67/67/67 65/65/65 
f 74/74/74 68/68/68 73/73/73 
f 67/67/67 74/74/74 75/75/75 
f 75/75/75 74/74/74 73/73/73 
f 37/37/37 76/76/76 38/38/38 
f 77/77/77 38/38/38 76/76/76 
f 78/78/78 37/37/37 39/39/39 
f 37/37/37 78/78/78 76/76/76 
f 76/76/76 79/79/79 77/77/77 
f 79/79/79 76/76/76 78/78/78 
f 80/80/80 77/77/77 79/79/79 
f 28/28/28 81/81/81 39/39/39 
f 78/78/78 39/39/39 81/81/81 
f 79/79/79 82/82/82 80/80/80 
f 83/83/83 80/80/80 82/82/82 
f 78/78/78 84/84/84 79/79/79 
f 85/85/85 78/78/78 81/81/81 
f 78/78/78 85/85/85 84/84/84 
f 86/86/86 81/81/81 28/28/28 
f 86/86/86 85/85/85 81/81/81 
f 28/28/28 87/87/87 86/86/86 
f 28/28/28 27/27/27 87/87/87 
f 87/87/87 27/27/27 88/88/88 
f 27/27/27 26/26/26 88/88/88 
f 87/87/87 88/88/88 89/89/89 
f 89/89/89 88/88/88 26/26/26 
f 87/87/87 90/90/90 86/86/86 
f 89/89/89 90/90/90 87/87/87 
f 26/26/26 90/90/90 89/89/89 
f 86/86/86 90/90/90 85/85/85 
f 90/90/90 26/26/26 91/91/91 
f 91/91/91 85/85/85 90/90/90 
f 26/26/26 21/21/21 91/91/91 
f 21/21/21 92/92/92 91/91/91 
f 92/92/92 85/85/85 91/91/91 
f 92/92/92 21/21/21 17/17/17 
f 17/17/17 93/93/93 92/92/92 
f 93/93/93 17/17/17 94/94/94 
f 10/10/10 94/94/94 17/17/17 
f 93/93/93 95/95/95 92/92/92 
f 94/94/94 95/95/95 93/93/93 
f 94/94/94 10/10/10 96/96/96 
f 96/96/96 10/10/10 97/97/97 
f 98/98/98 94/94/94 96/96/96 
f 95/95/95 94/94/94 98/98/98 
f 96/96/96 99/99/99 98/98/98 
f 99/99/99 95/95/95 98/98/98 
f 96/96/96 100/100/100 99/99/99 
f 101/101/101 99/99/99 100/100/100 
f 95/95/95 102/102/102 92/92/92 
f 85/85/85 92/92/92 102/102/102 
f 103/103/103 95/95/95 99/99/99 
f 95/95/95 103/103/103 102/102/102 
f 104/104/104 99/99/99 101/101/101 
f 99/99/99 104/104/104 103/103/103 
f 101/101/101 105/105/105 104/104/104 
f 104/104/104 106/106/106 103/103/103 
f 104/104/104 105/105/105 106/106/106 
f 107/107/107 102/102/102 103/103/103 
f 103/103/103 106/106/106 107/107/107 
f 102/102/102 108/108/108 85/85/85 
f 102/102/102 107/107/107 108/108/108 
f 105/105/105 109/109/109 110/110/110 
f 111/111/111 106/106/106 105/105/105 
f 111/111/111 105/105/105 110/110/110 
f 106/106/106 111/111/111 107/107/107 
f 111/111/111 110/110/110 112/112/112 
f 111/111/111 113/113/113 107/107/107 
f 113/113/113 111/111/111 112/112/112 
f 107/107/107 114/114/114 108/108/108 
f 114/114/114 107/107/107 113/113/113 
f 112/112/112 115/115/115 113/113/113 
f 114/114/114 113/113/113 115/115/115 
f 112/112/112 116/116/116 115/115/115 
f 117/117/117 115/115/115 116/116/116 
f 115/115/115 117/117/117 114/114/114 
f 116/116/116 118/118/118 117/117/117 
f 118/118/118 119/119/119 117/117/117 
f 119/119/119 120/120/120 117/117/117 
f 121/121/121 108/108/108 114/114/114 
f 121/121/121 114/114/114 117/117/117 
f 108/108/108 121/121/121 85/85/85 
f 120/120/120 122/122/122 117/117/117 
f 122/122/122 121/121/121 117/117/117 
f 123/123/123 122/122/122 120/120/120 
f 124/124/124 85/85/85 121/121/121 
f 121/121/121 122/122/122 124/124/124 
f 124/124/124 84/84/84 85/85/85 
f 125/125/125 122/122/122 123/123/123 
f 125/125/125 124/124/124 122/122/122 
f 123/123/123 126/126/126 125/125/125 
f 84/84/84 124/124/124 127/127/127 
f 127/127/127 79/79/79 84/84/84 
f 79/79/79 127/127/127 82/82/82 
f 128/128/128 127/127/127 124/124/124 
f 127/127/127 128/128/128 82/82/82 
f 125/125/125 128/128/128 124/124/124 
f 125/125/125 82/82/82 128/128/128 
f 82/82/82 125/125/125 83/83/83 
f 125/125/125 126/126/126 129/129/129 
f 126/126/126 83/83/83 129/129/129 
f 129/129/129 83/83/83 125/125/125 
f 130/130/130 131/131/131 132/132/132 
f 132/132/132 131/131/131 133/133/133 
f 131/131/131 130/130/130 134/134/134 
f 135/135/135 131/131/131 134/134/134 
f 131/131/131 135/135/135 133/133/133 
f 130/130/130 136/136/136 134/134/134 
f 134/134/134 137/137/137 135/135/135 
f 134/134/134 136/136/136 137/137/137 
f 137/137/137 138/138/138 135/135/135 
f 138/138/138 133/133/133 135/135/135 
f 132/132/132 139/139/139 130/130/130 
f 140/140/140 139/139/139 132/132/132 
f 140/140/140 132/132/132 133/133/133 
f 139/139/139 141/141/141 130/130/130 
f 136/136/136 130/130/130 141/141/141 
f 141/141/141 139/139/139 142/142/142 
f 140/140/140 142/142/142 139/139/139 
f 143/143/143 136/136/136 141/141/141 
f 144/144/144 143/143/143 141/141/141 
f 144/144/144 141/141/141 142/142/142 
f 136/136/136 143/143/143 145/145/145 
f 143/143/143 144/144/144 146/146/146 
f 146/146/146 145/145/145 143/143/143 
f 146/146/146 144/144/144 147/147/147 
f 147/147/147 144/144/144 148/148/148 
f 147/147/147 149/149/149 146/146/146 
f 145/145/145 146/146/146 149/149/149 
f 149/149/149 147/147/147 150/150/150 
f 150/150/150 151/151/151 149/149/149 
f 152/152/152 148/148/148 144/144/144 
f 152/152/152 153/153/153 148/148/148 
f 144/144/144 142/142/142 152/152/152 
f 153/153/153 152/152/152 154/154/154 
f 154/154/154 152/152/152 155/155/155 
f 152/152/152 142/142/142 155/155/155 
f 156/156/156 155/155/155 142/142/142 
f 142/142/142 157/157/157 156/156/156 
f 142/142/142 140/140/140 157/157/157 
f 140/140/140 158/158/158 157/157/157 
f 159/159/159 157/157/157 158/158/158 
f 158/158/158 140/140/140 160/160/160 
f 159/159/159 158/158/158 161/161/161 
f 160/160/160 161/161/161 158/158/158 
f 160/160/160 140/140/140 133/133/133 
f 161/161/161 162/162/162 159/159/159 
f 162/162/162 163/163/163 159/159/159 
f 163/163/163 162/162/162 164/164/164 
f 164/164/164 162/162/162 165/165/165 
f 162/162/162 161/161/161 166/166/166 
f 160/160/160 166/166/166 161/161/161 
f 162/162/162 166/166/166 165/165/165 
f 166/166/166 160/160/160 167/167/167 
f 167/167/167 165/165/165 166/166/166 
f 167/167/167 160/160/160 133/133/133 
f 165/165/165 167/167/167 168/168/168 
f 169/169/169 168/168/168 167/167/167 
f 168/168/168 169/169/169 170/170/170 
f 171/171/171 170/170/170 169/169/169 
f 169/169/169 167/167/167 171/171/171 
f 167/167/167 172/172/172 171/171/171 
f 172/172/172 167/167/167 133/133/133 
f 171/171/171 172/172/172 173/173/173 
f 174/174/174 173/173/173 172/172/172 
f 133/133/133 175/175/175 172/172/172 
f 174/174/174 172/172/172 175/175/175 
f 175/175/175 133/133/133 138/138/138 
f 174/174/174 175/175/175 176/176/176 
f 175/175/175 138/138/138 176/176/176 
f 177/177/177 174/174/174 176/176/176 
f 177/177/177 178/178/178 174/174/174 
f 179/179/179 178/178/178 177/177/177 
f 180/180/180 177/177/177 176/176/176 
f 138/138/138 180/180/180 176/176/176 
f 179/179/179 177/177/177 181/181/181 
f 177/177/177 180/180/180 181/181/181 
f 179/179/179 181/181/181 182/182/182 
f 183/183/183 182/182/182 181/181/181 
f 183/183/183 181/181/181 180/180/180 
f 183/183/183 184/184/184 182/182/182 
f 183/183/183 185/185/185 184/184/184 
f 183/183/183 186/186/186 185/185/185 
f 186/186/186 183/183/183 180/180/180 
f 187/187/187 185/185/185 186/186/186 
f 188/188/188 180/180/180 138/138/138 
f 180/180/180 188/188/188 186/186/186 
f 186/186/186 189/189/189 187/187/187 
f 189/189/189 186/186/186 188/188/188 
f 190/190/190 187/187/187 189/189/189 
f 189/189/189 191/191/191 190/190/190 
f 188/188/188 192/192/192 189/189/189 
f 191/191/191 189/189/189 192/192/192 
f 138/138/138 193/193/193 188/188/188 
f 193/193/193 138/138/138 137/137/137 
f 188/188/188 194/194/194 192/192/192 
f 192/192/192 194/194/194 191/191/191 
f 193/193/193 194/194/194 188/188/188 
f 191/191/191 194/194/194 195/195/195 
f 195/195/195 196/196/196 191/191/191 
f 194/194/194 193/193/193 197/197/197 
f 197/197/197 195/195/195 194/194/194 
f 195/195/195 198/198/198 196/196/196 
f 197/197/197 193/193/193 199/199/199 
f 195/195/195 200/200/200 198/198/198 
f 200/200/200 201/201/201 198/198/198 
f 195/195/195 197/197/197 202/202/202 
f 195/195/195 202/202/202 200/200/200 
f 203/203/203 201/201/201 200/200/200 
f 200/200/200 202/202/202 203/203/203 
f 204/204/204 202/202/202 197/197/197 
f 202/202/202 204/204/204 203/203/203 
f 197/197/197 199/199/199 204/204/204 
f 205/205/205 203/203/203 204/204/204 
f 199/199/199 205/205/205 204/204/204 
f 203/203/203 205/205/205 206/206/206 
f 205/205/205 207/207/207 206/206/206 
f 207/207/207 205/205/205 199/199/199 
f 208/208/208 206/206/206 207/207/207 
f 207/207/207 199/199/199 209/209/209 
f 209/209/209 208/208/208 207/207/207 
f 199/199/199 210/210/210 209/209/209 
f 210/210/210 199/199/199 193/193/193 
f 193/193/193 137/137/137 210/210/210 
f 137/137/137 136/136/136 210/210/210 
f 208/208/208 209/209/209 211/211/211 
f 208/208/208 211/211/211 212/212/212 
f 213/213/213 212/212/212 211/211/211 
f 209/209/209 214/214/214 211/211/211 
f 211/211/211 214/214/214 213/213/213 
f 214/214/214 209/209/209 210/210/210 
f 215/215/215 213/213/213 214/214/214 
f 216/216/216 213/213/213 215/215/215 
f 210/210/210 217/217/217 214/214/214 
f 217/217/217 210/210/210 136/136/136 
f 145/145/145 217/217/217 136/136/136 
f 214/214/214 218/218/218 215/215/215 
f 215/215/215 218/218/218 216/216/216 
f 218/218/218 214/214/214 217/217/217 
f 219/219/219 216/216/216 218/218/218 
f 220/220/220 216/216/216 219/219/219 
f 221/221/221 220/220/220 219/219/219 
f 219/219/219 151/151/151 221/221/221 
f 217/217/217 222/222/222 218/218/218 
f 218/218/218 222/222/222 219/219/219 
f 217/217/217 145/145/145 222/222/222 
f 151/151/151 219/219/219 223/223/223 
f 223/223/223 219/219/219 222/222/222 
f 222/222/222 145/145/145 223/223/223 
f 223/223/223 149/149/149 151/151/151 
f 149/149/149 223/223/223 145/145/145 
f 224/224/224 225/225/225 226/226/226 
f 227/227/227 228/228/228 224/224/224 
f 228/228/228 227/227/227 229/229/229 
f 225/225/225 224/224/224 228/228/228 
f 230/230/230 229/229/229 231/231/231 
f 229/229/229 230/230/230 228/228/228 
f 230/230/230 231/231/231 232/232/232 
f 233/233/233 226/226/226 225/225/225 
f 232/232/232 234/234/234 230/230/230 
f 232/232/232 235/235/235 234/234/234 
f 233/233/233 225/225/225 236/236/236 
f 236/236/236 225/225/225 237/237/237 
f 233/233/233 236/236/236 237/237/237 
f 228/228/228 237/237/237 225/225/225 
f 235/235/235 238/238/238 234/234/234 
f 230/230/230 234/234/234 239/239/239 
f 228/228/228 230/230/230 239/239/239 
f 234/234/234 238/238/238 239/239/239 
f 238/238/238 235/235/235 240/240/240 
f 241/241/241 228/228/228 239/239/239 
f 237/237/237 228/228/228 241/241/241 
f 238/238/238 242/242/242 239/239/239 
f 242/242/242 241/241/241 239/239/239 
f 240/240/240 243/243/243 238/238/238 
f 243/243/243 240/240/240 244/244/244 
f 242/242/242 238/238/238 245/245/245 
f 245/245/245 238/238/238 243/243/243 
f 244/244/244 246/246/246 243/243/243 
f 245/245/245 243/243/243 246/246/246 
f 246/246/246 244/244/244 247/247/247 
f 247/247/247 248/248/248 246/246/246 
f 246/246/246 249/249/249 245/245/245 
f 245/245/245 249/249/249 242/242/242 
f 250/250/250 246/246/246 248/248/248 
f 246/246/246 250/250/250 249/249/249 
f 248/248/248 251/251/251 250/250/250 
f 249/249/249 252/252/252 242/242/242 
f 252/252/252 249/249/249 250/250/250 
f 241/241/241 242/242/242 252/252/252 
f 253/253/253 250/250/250 251/251/251 
f 250/250/250 253/253/253 252/252/252 
f 251/251/251 254/254/254 253/253/253 
f 255/255/255 253/253/253 254/254/254 
f 253/253/253 255/255/255 252/252/252 
f 255/255/255 254/254/254 256/256/256 
f 257/257/257 252/252/252 255/255/255 
f 255/255/255 256/256/256 257/257/257 
f 252/252/252 257/257/257 241/241/241 
f 257/257/257 258/258/258 241/241/241 
f 257/257/257 256/256/256 259/259/259 
f 258/258/258 257/257/257 259/259/259 
f 260/260/260 259/259/259 256/256/256 
f 259/259/259 260/260/260 261/261/261 
f 259/259/259 262/262/262 258/258/258 
f 262/262/262 241/241/241 258/258/258 
f 262/262/262 259/259/259 261/261/261 
f 241/241/241 262/262/262 237/237/237 
f 261/261/261 233/233/233 262/262/262 
f 262/262/262 233/233/233 237/237/237 
f 263/263/263 264/264/264 265/265/265 
f 265/265/265 266/266/266 263/263/263 
f 264/264/264 263/263/263 267/267/267 
f 267/267/267 268/268/268 264/264/264 
f 263/263/263 266/266/266 269/269/269 
f 269/269/269 267/267/267 263/263/263 
f 266/266/266 240/240/240 269/269/269 
f 266/266/266 270/270/270 240/240/240 
f 267/267/267 269/269/269 271/271/271 
f 240/240/240 271/271/271 269/269/269 
f 268/268/268 267/267/267 272/272/272 
f 272/272/272 267/267/267 271/271/271 
f 273/273/273 268/268/268 272/272/272 
f 270/270/270 244/244/244 240/240/240 
f 272/272/272 274/274/274 273/273/273 
f 271/271/271 274/274/274 272/272/272 
f 273/273/273 274/274/274 275/275/275 
f 276/276/276 273/273/273 275/275/275 
f 274/274/274 271/271/271 277/277/277 
f 240/240/240 277/277/277 271/271/271 
f 274/274/274 278/278/278 275/275/275 
f 274/274/274 277/277/277 278/278/278 
f 278/278/278 279/279/279 275/275/275 
f 280/280/280 275/275/275 279/279/279 
f 277/277/277 281/281/281 278/278/278 
f 279/279/279 278/278/278 281/281/281 
f 279/279/279 282/282/282 280/280/280 
f 283/283/283 280/280/280 282/282/282 
f 284/284/284 279/279/279 281/281/281 
f 282/282/282 279/279/279 284/284/284 
f 282/282/282 285/285/285 283/283/283 
f 281/281/281 286/286/286 284/284/284 
f 284/284/284 286/286/286 282/282/282 
f 281/281/281 277/277/277 235/235/235 
f 277/277/277 240/240/240 235/235/235 
f 286/286/286 281/281/281 232/232/232 
f 235/235/235 232/232/232 281/281/281 
f 286/286/286 287/287/287 282/282/282 
f 285/285/285 282/282/282 287/287/287 
f 283/283/283 285/285/285 288/288/288 
f 285/285/285 287/287/287 288/288/288 
f 283/283/283 288/288/288 289/289/289 
f 289/289/289 288/288/288 290/290/290 
f 287/287/287 290/290/290 288/288/288 
f 289/289/289 291/291/291 292/292/292 
f 289/289/289 290/290/290 291/291/291 
f 290/290/290 293/293/293 291/291/291 
f 290/290/290 294/294/294 293/293/293 
f 295/295/295 293/293/293 294/294/294 
f 294/294/294 290/290/290 296/296/296 
f 296/296/296 290/290/290 287/287/287 
f 294/294/294 297/297/297 295/295/295 
f 298/298/298 295/295/295 297/297/297 
f 299/299/299 294/294/294 296/296/296 
f 299/299/299 296/296/296 287/287/287 
f 297/297/297 294/294/294 299/299/299 
f 298/298/298 297/297/297 300/300/300 
f 299/299/299 300/300/300 297/297/297 
f 301/301/301 298/298/298 300/300/300 
f 300/300/300 302/302/302 301/301/301 
f 287/287/287 303/303/303 299/299/299 
f 300/300/300 299/299/299 303/303/303 
f 303/303/303 287/287/287 304/304/304 
f 287/287/287 286/286/286 304/304/304 
f 232/232/232 304/304/304 286/286/286 
f 231/231/231 303/303/303 304/304/304 
f 304/304/304 232/232/232 231/231/231 
f 303/303/303 305/305/305 300/300/300 
f 303/303/303 231/231/231 305/305/305 
f 300/300/300 306/306/306 302/302/302 
f 306/306/306 300/300/300 305/305/305 
f 307/307/307 302/302/302 306/306/306 
f 306/306/306 305/305/305 308/308/308 
f 306/306/306 309/309/309 307/307/307 
f 309/309/309 306/306/306 308/308/308 
f 308/308/308 305/305/305 310/310/310 
f 309/309/309 308/308/308 310/310/310 
f 310/310/310 305/305/305 311/311/311 
f 311/311/311 305/305/305 231/231/231 
f 307/307/307 309/309/309 312/312/312 
f 313/313/313 307/307/307 312/312/312 
f 309/309/309 310/310/310 314/314/314 
f 311/311/311 314/314/314 310/310/310 
f 312/312/312 309/309/309 315/315/315 
f 315/315/315 313/313/313 312/312/312 
f 314/314/314 315/315/315 309/309/309 
f 315/315/315 316/316/316 313/313/313 
f 317/317/317 315/315/315 314/314/314 
f 318/318/318 315/315/315 317/317/317 
f 319/319/319 314/314/314 311/311/311 
f 314/314/314 319/319/319 317/317/317 
f 317/317/317 226/226/226 318/318/318 
f 320/320/320 318/318/318 226/226/226 
f 224/224/224 317/317/317 319/319/319 
f 226/226/226 317/317/317 224/224/224 
f 319/319/319 311/311/311 321/321/321 
f 321/321/321 311/311/311 322/322/322 
f 231/231/231 322/322/322 311/311/311 
f 227/227/227 319/319/319 321/321/321 
f 319/319/319 227/227/227 224/224/224 
f 229/229/229 321/321/321 322/322/322 
f 322/322/322 231/231/231 229/229/229 
f 321/321/321 229/229/229 227/227/227 
f 323/323/323 73/73/73 72/72/72 
f 67/67/67 75/75/75 324/324/324 
f 324/324/324 75/75/75 73/73/73 
f 325/325/325 73/73/73 323/323/323 
f 73/73/73 325/325/325 324/324/324 
f 323/323/323 326/326/326 325/325/325 
f 325/325/325 326/326/326 324/324/324 
f 326/326/326 323/323/323 327/327/327 
f 328/328/328 326/326/326 327/327/327 
f 327/327/327 329/329/329 328/328/328 
f 326/326/326 328/328/328 330/330/330 
f 328/328/328 329/329/329 330/330/330 
f 326/326/326 330/330/330 324/324/324 
f 331/331/331 330/330/330 329/329/329 
f 332/332/332 331/331/331 329/329/329 
f 332/332/332 333/333/333 331/331/331 
f 330/330/330 331/331/331 334/334/334 
f 334/334/334 324/324/324 330/330/330 
f 335/335/335 331/331/331 333/333/333 
f 331/331/331 335/335/335 334/334/334 
f 336/336/336 335/335/335 333/333/333 
f 337/337/337 335/335/335 336/336/336 
f 338/338/338 334/334/334 335/335/335 
f 335/335/335 337/337/337 339/339/339 
f 335/335/335 339/339/339 338/338/338 
f 337/337/337 340/340/340 339/339/339 
f 341/341/341 334/334/334 338/338/338 
f 338/338/338 339/339/339 341/341/341 
f 324/324/324 334/334/334 342/342/342 
f 334/334/334 341/341/341 342/342/342 
f 342/342/342 67/67/67 324/324/324 
f 340/340/340 343/343/343 339/339/339 
f 343/343/343 341/341/341 339/339/339 
f 340/340/340 344/344/344 343/343/343 
f 64/64/64 67/67/67 342/342/342 
f 345/345/345 341/341/341 343/343/343 
f 345/345/345 343/343/343 344/344/344 
f 342/342/342 341/341/341 346/346/346 
f 341/341/341 345/345/345 346/346/346 
f 347/347/347 64/64/64 342/342/342 
f 346/346/346 347/347/347 342/342/342 
f 348/348/348 346/346/346 345/345/345 
f 348/348/348 345/345/345 344/344/344 
f 347/347/347 346/346/346 349/349/349 
f 348/348/348 349/349/349 346/346/346 
f 64/64/64 347/347/347 350/350/350 
f 344/344/344 351/351/351 348/348/348 
f 351/351/351 344/344/344 352/352/352 
f 351/351/351 352/352/352 353/353/353 
f 348/348/348 351/351/351 354/354/354 
f 353/353/353 354/354/354 351/351/351 
f 355/355/355 354/354/354 353/353/353 
f 356/356/356 355/355/355 353/353/353 
f 354/354/354 357/357/357 348/348/348 
f 349/349/349 348/348/348 357/357/357 
f 357/357/357 358/358/358 349/349/349 
f 358/358/358 357/357/357 359/359/359 
f 360/360/360 358/358/358 359/359/359 
f 358/358/358 361/361/361 349/349/349 
f 360/360/360 361/361/361 358/358/358 
f 362/362/362 361/361/361 360/360/360 
f 363/363/363 362/362/362 360/360/360 
f 361/361/361 362/362/362 364/364/364 
f 361/361/361 365/365/365 349/349/349 
f 361/361/361 364/364/364 365/365/365 
f 365/365/365 347/347/347 349/349/349 
f 364/364/364 366/366/366 365/365/365 
f 365/365/365 367/367/367 347/347/347 
f 367/367/367 365/365/365 366/366/366 
f 364/364/364 368/368/368 366/366/366 
f 367/367/367 366/366/366 368/368/368 
f 368/368/368 364/364/364 369/369/369 
f 350/350/350 347/347/347 367/367/367 
f 368/368/368 370/370/370 367/367/367 
f 350/350/350 367/367/367 370/370/370 
f 370/370/370 368/368/368 371/371/371 
f 372/372/372 350/350/350 370/370/370 
f 370/370/370 373/373/373 372/372/372 
f 374/374/374 372/372/372 373/373/373 
f 372/372/372 374/374/374 350/350/350 
f 373/373/373 375/375/375 374/374/374 
f 374/374/374 375/375/375 376/376/376 
f 375/375/375 47/47/47 376/376/376 
f 377/377/377 350/350/350 374/374/374 
f 377/377/377 374/374/374 376/376/376 
f 376/376/376 47/47/47 377/377/377 
f 64/64/64 350/350/350 377/377/377 
f 47/47/47 46/46/46 377/377/377 
f 64/64/64 377/377/377 46/46/46 
f 378/378/378 379/379/379 380/380/380 
f 378/378/378 381/381/381 382/382/382 
f 383/383/383 381/381/381 378/378/378 
f 381/381/381 383/383/383 384/384/384 
f 380/380/380 383/383/383 378/378/378 
f 384/384/384 383/383/383 385/385/385 
f 380/380/380 385/385/385 383/383/383 
f 386/386/386 384/384/384 385/385/385 
f 387/387/387 378/378/378 388/388/388 
f 379/379/379 378/378/378 387/387/387 
f 387/387/387 389/389/389 379/379/379 
f 389/389/389 390/390/390 379/379/379 
f 390/390/390 389/389/389 391/391/391 
f 390/390/390 392/392/392 379/379/379 
f 393/393/393 392/392/392 390/390/390 
f 393/393/393 394/394/394 392/392/392 
f 395/395/395 379/379/379 392/392/392 
f 395/395/395 380/380/380 379/379/379 
f 394/394/394 396/396/396 392/392/392 
f 394/394/394 397/397/397 396/396/396 
f 392/392/392 398/398/398 395/395/395 
f 398/398/398 392/392/392 396/396/396 
f 399/399/399 396/396/396 397/397/397 
f 397/397/397 400/400/400 399/399/399 
f 396/396/396 401/401/401 398/398/398 
f 396/396/396 399/399/399 401/401/401 
f 400/400/400 402/402/402 399/399/399 
f 402/402/402 401/401/401 399/399/399 
f 400/400/400 403/403/403 402/402/402 
f 404/404/404 402/402/402 403/403/403 
f 404/404/404 403/403/403 405/405/405 
f 406/406/406 404/404/404 405/405/405 
f 402/402/402 404/404/404 407/407/407 
f 401/401/401 402/402/402 407/407/407 
f 404/404/404 406/406/406 408/408/408 
f 408/408/408 407/407/407 404/404/404 
f 401/401/401 407/407/407 409/409/409 
f 407/407/407 408/408/408 409/409/409 
f 410/410/410 408/408/408 406/406/406 
f 406/406/406 411/411/411 410/410/410 
f 412/412/412 410/410/410 411/411/411 
f 408/408/408 410/410/410 413/413/413 
f 413/413/413 409/409/409 408/408/408 
f 410/410/410 412/412/412 414/414/414 
f 412/412/412 415/415/415 414/414/414 
f 416/416/416 414/414/414 415/415/415 
f 414/414/414 417/417/417 410/410/410 
f 414/414/414 416/416/416 417/417/417 
f 418/418/418 410/410/410 417/417/417 
f 418/418/418 413/413/413 410/410/410 
f 416/416/416 419/419/419 417/417/417 
f 416/416/416 420/420/420 419/419/419 
f 421/421/421 418/418/418 417/417/417 
f 421/421/421 413/413/413 418/418/418 
f 421/421/421 417/417/417 419/419/419 
f 422/422/422 419/419/419 420/420/420 
f 419/419/419 422/422/422 421/421/421 
f 420/420/420 386/386/386 422/422/422 
f 385/385/385 422/422/422 386/386/386 
f 422/422/422 385/385/385 423/423/423 
f 423/423/423 385/385/385 424/424/424 
f 423/423/423 425/425/425 422/422/422 
f 425/425/425 421/421/421 422/422/422 
f 424/424/424 425/425/425 423/423/423 
f 385/385/385 380/380/380 424/424/424 
f 425/425/425 424/424/424 426/426/426 
f 427/427/427 424/424/424 380/380/380 
f 427/427/427 426/426/426 424/424/424 
f 426/426/426 428/428/428 425/425/425 
f 428/428/428 421/421/421 425/425/425 
f 427/427/427 428/428/428 426/426/426 
f 421/421/421 428/428/428 429/429/429 
f 413/413/413 421/421/421 429/429/429 
f 428/428/428 427/427/427 430/430/430 
f 428/428/428 430/430/430 429/429/429 
f 427/427/427 380/380/380 431/431/431 
f 380/380/380 395/395/395 431/431/431 
f 432/432/432 430/430/430 427/427/427 
f 427/427/427 431/431/431 432/432/432 
f 433/433/433 429/429/429 430/430/430 
f 432/432/432 433/433/433 430/430/430 
f 434/434/434 431/431/431 395/395/395 
f 431/431/431 434/434/434 432/432/432 
f 395/395/395 398/398/398 434/434/434 
f 434/434/434 435/435/435 432/432/432 
f 433/433/433 432/432/432 435/435/435 
f 434/434/434 398/398/398 436/436/436 
f 435/435/435 434/434/434 436/436/436 
f 398/398/398 401/401/401 436/436/436 
f 433/433/433 435/435/435 437/437/437 
f 436/436/436 437/437/437 435/435/435 
f 436/436/436 401/401/401 438/438/438 
f 437/437/437 436/436/436 438/438/438 
f 409/409/409 438/438/438 401/401/401 
f 437/437/437 438/438/438 439/439/439 
f 439/439/439 438/438/438 409/409/409 
f 433/433/433 437/437/437 439/439/439 
f 440/440/440 433/433/433 439/439/439 
f 429/429/429 433/433/433 440/440/440 
f 409/409/409 441/441/441 439/439/439 
f 439/439/439 441/441/441 440/440/440 
f 429/429/429 440/440/440 441/441/441 
f 409/409/409 413/413/413 441/441/441 
f 413/413/413 429/429/429 441/441/441 
f 442/442/442 443/443/443 444/444/444 
f 444/444/444 443/443/443 445/445/445 
f 446/446/446 444/444/444 445/445/445 
f 447/447/447 446/446/446 445/445/445 
f 447/447/447 445/445/445 443/443/443 
f 447/447/447 448/448/448 446/446/446 
f 447/447/447 449/449/449 448/448/448 
f 448/448/448 449/449/449 450/450/450 
f 447/447/447 443/443/443 451/451/451 
f 449/449/449 447/447/447 451/451/451 
f 449/449/449 452/452/452 450/450/450 
f 449/449/449 451/451/451 452/452/452 
f 453/453/453 450/450/450 452/452/452 
f 443/443/443 454/454/454 451/451/451 
f 443/443/443 442/442/442 454/454/454 
f 451/451/451 455/455/455 452/452/452 
f 455/455/455 451/451/451 454/454/454 
f 454/454/454 456/456/456 455/455/455 
f 455/455/455 457/457/457 452/452/452 
f 457/457/457 455/455/455 456/456/456 
f 454/454/454 458/458/458 456/456/456 
f 458/458/458 454/454/454 442/442/442 
f 456/456/456 458/458/458 457/457/457 
f 453/453/453 452/452/452 459/459/459 
f 459/459/459 452/452/452 457/457/457 
f 453/453/453 459/459/459 460/460/460 
f 461/461/461 453/453/453 460/460/460 
f 453/453/453 461/461/461 462/462/462 
f 459/459/459 463/463/463 460/460/460 
f 462/462/462 461/461/461 464/464/464 
f 464/464/464 465/465/465 462/462/462 
f 461/461/461 460/460/460 466/466/466 
f 461/461/461 466/466/466 464/464/464 
f 460/460/460 463/463/463 466/466/466 
f 464/464/464 467/467/467 465/465/465 
f 467/467/467 464/464/464 466/466/466 
f 465/465/465 467/467/467 468/468/468 
f 463/463/463 469/469/469 466/466/466 
f 466/466/466 469/469/469 467/467/467 
f 467/467/467 470/470/470 468/468/468 
f 467/467/467 469/469/469 470/470/470 
f 471/471/471 468/468/468 470/470/470 
f 469/469/469 463/463/463 472/472/472 
f 472/472/472 470/470/470 469/469/469 
f 473/473/473 463/463/463 459/459/459 
f 463/463/463 473/473/473 472/472/472 
f 457/457/457 473/473/473 459/459/459 
f 472/472/472 474/474/474 470/470/470 
f 475/475/475 473/473/473 457/457/457 
f 472/472/472 473/473/473 476/476/476 
f 475/475/475 476/476/476 473/473/473 
f 474/474/474 472/472/472 476/476/476 
f 477/477/477 470/470/470 474/474/474 
f 476/476/476 478/478/478 474/474/474 
f 474/474/474 479/479/479 477/477/477 
f 477/477/477 479/479/479 480/480/480 
f 481/481/481 474/474/474 478/478/478 
f 474/474/474 481/481/481 479/479/479 
f 478/478/478 476/476/476 482/482/482 
f 481/481/481 478/478/478 482/482/482 
f 482/482/482 476/476/476 483/483/483 
f 476/476/476 475/475/475 483/483/483 
f 480/480/480 479/479/479 484/484/484 
f 484/484/484 485/485/485 480/480/480 
f 486/486/486 485/485/485 484/484/484 
f 484/484/484 479/479/479 487/487/487 
f 479/479/479 481/481/481 487/487/487 
f 484/484/484 488/488/488 486/486/486 
f 484/484/484 487/487/487 488/488/488 
f 488/488/488 489/489/489 486/486/486 
f 490/490/490 487/487/487 481/481/481 
f 487/487/487 490/490/490 488/488/488 
f 490/490/490 489/489/489 488/488/488 
f 490/490/490 481/481/481 482/482/482 
f 489/489/489 490/490/490 491/491/491 
f 482/482/482 491/491/491 490/490/490 
f 483/483/483 491/491/491 482/482/482 
f 489/489/489 491/491/491 492/492/492 
f 491/491/491 483/483/483 492/492/492 
f 483/483/483 475/475/475 492/492/492 
f 493/493/493 492/492/492 475/475/475 
f 475/475/475 457/457/457 458/458/458 
f 493/493/493 475/475/475 458/458/458 
f 492/492/492 493/493/493 494/494/494 
f 494/494/494 495/495/495 492/492/492 
f 496/496/496 495/495/495 494/494/494 
f 497/497/497 496/496/496 494/494/494 
f 494/494/494 493/493/493 497/497/497 
f 497/497/497 498/498/498 496/496/496 
f 498/498/498 497/497/497 499/499/499 
f 497/497/497 493/493/493 500/500/500 
f 500/500/500 493/493/493 458/458/458 
f 501/501/501 499/499/499 497/497/497 
f 501/501/501 497/497/497 500/500/500 
f 499/499/499 501/501/501 502/502/502 
f 458/458/458 503/503/503 500/500/500 
f 501/501/501 500/500/500 503/503/503 
f 442/442/442 503/503/503 458/458/458 
f 504/504/504 501/501/501 503/503/503 
f 503/503/503 442/442/442 504/504/504 
f 501/501/501 504/504/504 505/505/505 
f 444/444/444 504/504/504 442/442/442 
f 506/506/506 505/505/505 504/504/504 
f 504/504/504 444/444/444 506/506/506 

